<svg viewBox="0 0 320 322" width="320" height="322" fill="none" xmlns="http://www.w3.org/2000/svg"><path d="M179.237 86l20-6v180l-20 6V86z" fill="#FEB801"/><path d="M199.237 80l-20 6-50-25 20-6 50 25z" fill="#EB39A4"/><path d="M179.463 265.554l-25.231-12.557" stroke="#FEB801"/><g filter="url(#filter0_bdii)"><path d="M144.237 52.421c0-4.39 4.56-7.293 8.538-5.437l74.537 34.784a12 12 0 016.925 10.874V265.58c0 4.39-4.559 7.293-8.537 5.437l-74.537-34.784a12 12 0 01-6.926-10.874V52.421z" fill="#fff" fill-opacity=".8"/></g><g filter="url(#filter1_d)"><path d="M139.237 96l20-6v180l-20 6V96z" fill="#234FEA"/><path d="M159.237 90l-20 6-50-25 20-6 50 25z" fill="#28CA39"/><path d="M139.463 275.554L89 250.439" stroke="#234FEA"/></g><defs><filter id="filter0_bdii" x="114.237" y="16.414" width="170" height="305.172" filterUnits="userSpaceOnUse" color-interpolation-filters="sRGB"><feFlood flood-opacity="0" result="BackgroundImageFix"/><feGaussianBlur in="BackgroundImage" stdDeviation="10"/><feComposite in2="SourceAlpha" operator="in" result="effect1_backgroundBlur"/><feColorMatrix in="SourceAlpha" values="0 0 0 0 0 0 0 0 0 0 0 0 0 0 0 0 0 0 127 0"/><feOffset dx="10" dy="10"/><feGaussianBlur stdDeviation="20"/><feColorMatrix values="0 0 0 0 0 0 0 0 0 0 0 0 0 0 0 0 0 0 0.1 0"/><feBlend in2="effect1_backgroundBlur" result="effect2_dropShadow"/><feBlend in="SourceGraphic" in2="effect2_dropShadow" result="shape"/><feColorMatrix in="SourceAlpha" values="0 0 0 0 0 0 0 0 0 0 0 0 0 0 0 0 0 0 127 0" result="hardAlpha"/><feOffset dx="-1"/><feComposite in2="hardAlpha" operator="arithmetic" k2="-1" k3="1"/><feColorMatrix values="0 0 0 0 1 0 0 0 0 1 0 0 0 0 1 0 0 0 0.4 0"/><feBlend in2="shape" result="effect3_innerShadow"/><feColorMatrix in="SourceAlpha" values="0 0 0 0 0 0 0 0 0 0 0 0 0 0 0 0 0 0 127 0" result="hardAlpha"/><feOffset dy="1"/><feComposite in2="hardAlpha" operator="arithmetic" k2="-1" k3="1"/><feColorMatrix values="0 0 0 0 1 0 0 0 0 1 0 0 0 0 1 0 0 0 0.4 0"/><feBlend in2="effect3_innerShadow" result="effect4_innerShadow"/></filter><filter id="filter1_d" x="76.748" y="35" width="110.489" height="252.654" filterUnits="userSpaceOnUse" color-interpolation-filters="sRGB"><feFlood flood-opacity="0" result="BackgroundImageFix"/><feColorMatrix in="SourceAlpha" values="0 0 0 0 0 0 0 0 0 0 0 0 0 0 0 0 0 0 127 0"/><feOffset dx="8" dy="-10"/><feGaussianBlur stdDeviation="10"/><feColorMatrix values="0 0 0 0 0 0 0 0 0 0 0 0 0 0 0 0 0 0 0.1 0"/><feBlend in2="BackgroundImageFix" result="effect1_dropShadow"/><feBlend in="SourceGraphic" in2="effect1_dropShadow" result="shape"/></filter></defs></svg>
