<svg xmlns="http://www.w3.org/2000/svg" xmlns:xlink="http://www.w3.org/1999/xlink"><symbol id="account" viewBox="0 0 48 48">
    <path fill-rule="evenodd" clip-rule="evenodd" d="M38.487 1.846c6.67 2.595 8.214 9.98 8.214 9.98.996 4.19 1.344 8.432 1.294 12.174.05 3.742-.298 7.983-1.294 12.175 0 0-1.543 7.384-8.214 9.979C35.351 47.4 29.626 47.95 24 48c-5.625-.05-11.35-.649-14.486-1.846-6.671-2.595-8.214-9.98-8.214-9.98C.254 32.035-.045 27.743.005 24c-.05-3.742.299-7.983 1.295-12.175 0 0 1.543-7.384 8.214-9.979C12.65.65 18.374.05 24 0c5.626.05 11.35.649 14.487 1.846zM32 24a8 8 0 11-16 0 8 8 0 0116 0zm4 0c0 6.627-5.373 12-12 12s-12-5.373-12-12 5.373-12 12-12 12 5.373 12 12z"/>
</symbol><symbol id="arrow-left" viewBox="0 0 20 20">
    <path d="M8.032 4a.906.906 0 00-.64.266L2.265 9.364a.897.897 0 000 1.274l5.125 5.098a.909.909 0 001.282 0l.078-.078a.897.897 0 000-1.274l-3.5-3.482h11.844c.5 0 .906-.404.906-.901a.904.904 0 00-.906-.901H5.25l3.5-3.482a.897.897 0 000-1.275l-.077-.077A.907.907 0 008.032 4z"/>
</symbol><symbol id="arrow-right" viewBox="0 0 19 16">
    <path clip-rule="evenodd" d="M18.005 8c0-.467-.337-.846-1.011-1.604-1.541-1.732-3.867-4.34-4.532-5.059-.225-.243-.338-.365-.455-.438a.963.963 0 00-1.028 0c-.117.073-.23.195-.455.438-.226.243-.339.365-.406.492a1.188 1.188 0 000 1.11c.067.127.18.249.405.492L13.366 6.5H1.5c-.466 0-.699 0-.883.076a1 1 0 00-.54.541C0 7.301 0 7.534 0 8s0 .699.076.883a1 1 0 00.541.54c.184.077.417.077.883.077h11.865l-2.841 3.069c-.226.243-.339.365-.406.492a1.188 1.188 0 000 1.11c.067.127.18.249.405.492.226.243.339.365.456.438a.963.963 0 001.028 0c.117-.073.23-.195.455-.438.665-.718 2.99-3.327 4.532-5.06.674-.757 1.01-1.136 1.01-1.603z"/>
</symbol><symbol id="bar" viewBox="0 0 24 24">
    <path d="M8 2a1 1 0 00-.955.705C6.325 5.035 6 7.018 6 9c0 2.96 2.172 5.428 5 5.908V20h-1a1 1 0 100 2h1.832c.108.018.218.018.326 0H14a1 1 0 100-2h-1v-5.092c2.828-.48 5-2.948 5-5.908 0-1.76-.375-3.954-1.04-6.275A1 1 0 0016 2H8zm.838 2h6.322c.175.683.324 1.351.455 2H8.354c.133-.644.29-1.303.484-2z"/>
</symbol><symbol id="bell" viewBox="0 0 20 20">
    <path d="M1.5 13.5A.5.5 0 012 13h16a.5.5 0 01.5.5v1a.5.5 0 01-.5.5H2a.5.5 0 01-.5-.5v-1zm10.034-8.175A1.672 1.672 0 0010 3a1.672 1.672 0 00-1.534 2.325c-3.086.64-5.477 3.013-5.912 6.143-.04.287.19.532.48.532h13.931c.29 0 .52-.245.48-.532-.436-3.13-2.827-5.504-5.912-6.143z"/>
</symbol><symbol id="bill" viewBox="0 0 20 20">
    <path d="M16.444 2a.79.79 0 01-.777.8.79.79 0 01-.778-.8h-1.556a.79.79 0 01-.777.8.79.79 0 01-.778-.8h-1.556a.79.79 0 01-.778.8.79.79 0 01-.777-.8H7.11a.79.79 0 01-.778.8.79.79 0 01-.777-.8h-.778A.79.79 0 004 2.8v14.4c0 .442.348.8.778.8h.778c0-.442.348-.8.777-.8a.79.79 0 01.778.8h1.556c0-.442.348-.8.777-.8a.79.79 0 01.778.8h1.556c0-.442.348-.8.778-.8a.79.79 0 01.777.8h1.556c0-.442.348-.8.778-.8a.79.79 0 01.777.8h.778a.79.79 0 00.778-.8V2.8a.79.79 0 00-.778-.8h-.778zM14.89 14H7.11a.79.79 0 01-.778-.8c0-.442.349-.8.778-.8h7.778a.79.79 0 01.778.8.79.79 0 01-.778.8zm0-3.2H7.11a.79.79 0 01-.778-.8c0-.442.349-.8.778-.8h7.778a.79.79 0 01.778.8.79.79 0 01-.778.8zm0-3.2H7.11a.79.79 0 01-.778-.8c0-.442.349-.8.778-.8h7.778a.79.79 0 01.778.8.79.79 0 01-.778.8z"/>
</symbol><symbol id="bottle" viewBox="0 0 12 12">
    <path d="M5.625.75a.374.374 0 00-.375.375v2.833c-.861.43-1.5 1.254-1.5 2.28v4.637c0 .208.167.375.375.375h4.5A.374.374 0 009 10.875V6.237c0-1.025-.639-1.848-1.5-2.279V1.125A.374.374 0 007.125.75h-1.5zM6 1.5h.75v.75H6V1.5zM6 3h.75v1.125c0 .158.1.299.249.352a1.87 1.87 0 011.251 1.76v.513H4.5v-.513c0-.817.524-1.5 1.251-1.76A.373.373 0 006 4.125V3z"/>
</symbol><symbol id="briefcase" viewBox="0 0 20 18">
    <path d="M11 13H9c-.55 0-1-.45-1-1H1.01v4c0 1.1.9 2 2 2H17c1.1 0 2-.9 2-2v-4h-7c0 .55-.45 1-1 1zm7-9h-4c0-2.21-1.79-4-4-4S6 1.79 6 4H2C.9 4 0 4.9 0 6v3c0 1.11.89 2 2 2h6v-1c0-.55.45-1 1-1h2c.55 0 1 .45 1 1v1h6c1.1 0 2-.9 2-2V6c0-1.1-.9-2-2-2zM8 4c0-1.1.9-2 2-2s2 .9 2 2H7.99 8z"/>
</symbol><symbol id="bullet" viewBox="0 0 20 20">
    <path d="M19.459 4.927S18.816 1.85 16.036.77C14.73.27 12.344.021 10 0 7.656.02 5.27.27 3.964.77 1.184 1.85.541 4.926.541 4.926A21.038 21.038 0 00.002 10c-.02 1.56.104 3.347.54 5.073 0 0 .643 3.077 3.422 4.158 1.307.499 3.692.748 6.036.769 2.344-.02 4.73-.25 6.036-.77 2.78-1.08 3.423-4.157 3.423-4.157.415-1.747.56-3.514.54-5.073.02-1.56-.125-3.326-.54-5.073z"/>
</symbol><symbol id="card" viewBox="0 0 18 32">
    <path fill-rule="evenodd" clip-rule="evenodd" d="M16.5 0A1.5 1.5 0 0015 1.5V4H4a4 4 0 00-4 4v16a4 4 0 004 4h11v2.5a1.5 1.5 0 003 0v-29A1.5 1.5 0 0016.5 0zM15 25V7H9v18h6zM4 7h2v18H4a1 1 0 01-1-1V8a1 1 0 011-1z"/>
</symbol><symbol id="check-out" viewBox="0 0 48 48">
    <path fill-rule="evenodd" clip-rule="evenodd" d="M38.487 1.846c6.67 2.595 8.214 9.98 8.214 9.98.996 4.19 1.344 8.432 1.294 12.174.05 3.742-.298 7.983-1.294 12.175 0 0-1.543 7.384-8.214 9.979C35.351 47.4 29.626 47.95 24 48c-5.625-.05-11.35-.649-14.486-1.846-6.671-2.595-8.214-9.98-8.214-9.98C.254 32.035-.045 27.743.005 24c-.05-3.742.299-7.983 1.295-12.175 0 0 1.543-7.384 8.214-9.979C12.65.65 18.374.05 24 0c5.626.05 11.35.649 14.487 1.846zM34.556 22.62c.626.652.94.978.94 1.38 0 .403-.314.729-.94 1.381-2.153 2.242-6.278 6.533-7.365 7.62-.328.328-.493.493-.664.591a1.5 1.5 0 01-1.5 0c-.17-.098-.335-.263-.664-.591-.329-.33-.493-.494-.592-.665a1.5 1.5 0 010-1.5c.099-.17.263-.335.592-.664L28.535 26H14c-.465 0-.697 0-.888-.051a1.5 1.5 0 01-1.06-1.06c-.052-.192-.052-.424-.052-.89 0-.464 0-.697.051-.887a1.5 1.5 0 011.06-1.061C13.303 22 13.536 22 14 22h14.534l-4.171-4.171c-.329-.329-.493-.493-.592-.664a1.5 1.5 0 010-1.5c.099-.171.263-.336.592-.664.329-.33.493-.494.664-.592a1.5 1.5 0 011.5 0c.171.098.335.263.664.591 1.087 1.087 5.212 5.378 7.365 7.62z"/>
</symbol><symbol id="check" viewBox="0 0 56 48">
    <path d="M7.924 20.176a2.571 2.571 0 00-3.59 0l-3.59 3.526a2.462 2.462 0 000 3.527l20.404 20.04c1.093 1.074 2.901.947 3.828-.268L55.493 6.977a2.464 2.464 0 00-.51-3.49L50.919.497A2.57 2.57 0 0047.365 1l-25.25 33.115L7.924 20.176z"/>
</symbol><symbol id="chevron-down" viewBox="0 0 16 10">
    <path d="M2.251.881l5.75 5.75 5.75-5.75a1.161 1.161 0 011.642 1.642L8.78 9.137 2.251.88zm0 0a1.161 1.161 0 00-1.641 0m1.641 0H.61m0 0a1.161 1.161 0 000 1.642M.61.88v1.642m0 0l6.614 6.614M.61 2.523l6.614 6.614m0 0c.43.43 1.126.43 1.555 0H7.224z" fill="#86898F" stroke="#86898F" stroke-width=".2"/>
</symbol><symbol id="circle" viewBox="0 0 8 7">
    <circle cx="4" cy="3.5" r="3"/>
</symbol><symbol id="comment" viewBox="0 0 20 20">
    <path d="M17.993 4.58c0-.87-.712-1.58-1.592-1.58H3.6C2.72 3 2 3.71 2 4.58v9.474c0 .868.72 1.579 1.6 1.579h11.2l2.232 2.202c.358.353.968.102.968-.396l-.007-12.86zM10.8 13.263h-4a.795.795 0 01-.8-.79c0-.435.358-.789.8-.789h4c.441 0 .8.354.8.79 0 .435-.359.79-.8.79zm2.4-3.158H6.8a.795.795 0 01-.8-.79c0-.435.358-.79.8-.79h6.4c.441 0 .8.355.8.79 0 .436-.359.79-.8.79zm0-3.158H6.8a.795.795 0 01-.8-.79c0-.436.358-.79.8-.79h6.4c.441 0 .8.354.8.79 0 .436-.359.79-.8.79z"/>
</symbol><symbol id="copy" viewBox="0 0 16 16">
    <path d="M4.666 1.333a.667.667 0 000 1.334h8.667v8.666a.667.667 0 001.333 0V2.667c0-.737-.596-1.334-1.333-1.334H4.666zM2.666 4c-.736 0-1.333.597-1.333 1.333v8c0 .737.597 1.334 1.333 1.334h8c.737 0 1.334-.597 1.334-1.334v-8C12 4.597 11.403 4 10.666 4h-8zm4 2.667c.368 0 .667.298.667.666v1.334h1.333a.667.667 0 010 1.333H7.333v1.333a.667.667 0 01-1.333 0V10H4.666a.667.667 0 010-1.333H6V7.333c0-.368.298-.666.666-.666z"/>
</symbol><symbol id="cup" viewBox="0 0 20 18">
    <path d="M17 16H1c-.55 0-1 .45-1 1s.45 1 1 1h16c.55 0 1-.45 1-1s-.45-1-1-1zm1-16H7v2.4l1.81 1.45c.12.09.19.24.19.39V8.5c0 .28-.22.5-.5.5h-4c-.28 0-.5-.22-.5-.5V4.24c0-.15.07-.3.19-.39L6 2.4V0H4C2.9 0 2 .9 2 2v8c0 2.21 1.79 4 4 4h6c2.21 0 4-1.79 4-4V7h2c1.1 0 2-.9 2-2V2c0-1.1-.9-2-2-2zm0 5h-2V2h2v3z"/>
</symbol><symbol id="cutlery" viewBox="0 0 24 24">
    <path d="M5.984 1.986A1 1 0 005 3v5c0 1.645 1.355 3 3 3v10a1 1 0 102 0V11c1.646 0 3-1.355 3-3V3a1 1 0 10-2 0v4c0 .3-.2.5-.5.5S10 7.3 10 7V3a1 1 0 10-2 0v4c0 .3-.2.5-.5.5S7 7.3 7 7V3a1 1 0 00-1.016-1.014zM15.5 2a.5.5 0 00-.5.5V21a1 1 0 102 0v-6h1a1 1 0 001-1v-3c0-2.123 0-5.736-2.695-8.682A1.01 1.01 0 0015.563 2H15.5z"/>
</symbol><symbol id="delete" viewBox="0 0 31 24">
    <path fill-rule="evenodd" clip-rule="evenodd" d="M18.113 12.001l3.178-3.178c.1-.1.173-.173.224-.25a.941.941 0 000-1.046 1.789 1.789 0 00-.224-.25l-.017-.018a9 9 0 01-.018-.017c-.099-.1-.172-.173-.25-.224a.941.941 0 00-1.046 0c-.077.051-.15.125-.25.224l-3.178 3.179-3.161-3.162-.018-.017c-.099-.1-.172-.173-.25-.224a.941.941 0 00-1.046 0 1.794 1.794 0 00-.267.241l-.017.018c-.1.099-.173.172-.225.25a.941.941 0 000 1.046c.052.077.126.15.225.25l.017.017L14.951 12l-3.16 3.161-.018.018c-.1.099-.173.172-.225.25a.941.941 0 000 1.046c.052.077.126.15.225.25l.017.017.017.017c.1.1.173.173.25.225a.941.941 0 001.046 0c.078-.052.151-.126.25-.225l.018-.017 3.16-3.161 3.18 3.178c.098.1.172.173.25.225a.941.941 0 001.045 0c.078-.052.151-.126.25-.225l.018-.017.017-.017c.1-.1.173-.173.224-.25a.941.941 0 000-1.046c-.051-.078-.125-.151-.224-.25L18.113 12zM6.55 3.603c-.414.614-.867 1.455-1.561 2.751l-1.05 1.96c-.625 1.166-1.027 1.922-1.286 2.536-.243.577-.299.894-.299 1.15 0 .256.056.573.299 1.15.259.614.661 1.37 1.285 2.535l1.05 1.961c.695 1.296 1.148 2.137 1.562 2.75.388.577.65.812.892.956.241.145.572.266 1.264.336.737.074 1.691.077 3.162.077h8.094c2.368 0 3.942-.005 5.113-.162 1.112-.15 1.557-.404 1.841-.688.285-.285.539-.73.688-1.842.158-1.17.162-2.745.162-5.112v-3.922c0-2.367-.004-3.941-.162-5.112-.15-1.113-.403-1.557-.688-1.842-.284-.284-.729-.538-1.841-.688-1.171-.157-2.745-.162-5.113-.162H11.87c-1.47 0-2.425.003-3.162.077-.692.07-1.023.191-1.264.335-.241.145-.504.38-.892.956zM4.697 2.355C5.19 1.62 5.673 1.102 6.295.73 6.916.358 7.602.177 8.482.088 9.354 0 10.437 0 11.855 0h8.127c2.295 0 4.04 0 5.391.182 1.361.183 2.356.554 3.125 1.323.769.769 1.14 1.763 1.323 3.124.181 1.35.181 3.097.181 5.391v3.96c0 2.294 0 4.04-.181 5.39-.183 1.362-.554 2.357-1.323 3.125-.77.77-1.764 1.14-3.125 1.323-1.35.182-3.096.182-5.39.182h-8.127c-1.42 0-2.502 0-3.374-.088-.88-.09-1.566-.27-2.187-.642-.622-.372-1.104-.89-1.598-1.625-.49-.727-1.001-1.681-1.671-2.932L1.963 16.73c-.602-1.124-1.061-1.982-1.37-2.712C.284 13.28.12 12.658.12 12c0-.657.163-1.28.474-2.018.308-.73.767-1.588 1.37-2.712l1.062-1.983c.67-1.25 1.18-2.205 1.67-2.932z"/>
</symbol><symbol id="gas" viewBox="0 0 12 12">
    <path d="M7.127 11.831a.237.237 0 01-.134-.434c.657-.448 1.324-1.476 1.333-2.763.006-.918-.314-2.303-1.796-3.87.075 1.952-.745 3.598-.784 3.674a.236.236 0 01-.26.126.239.239 0 01-.19-.218c0-.009-.06-.776-.575-1.416-.125.408-.264.733-.388 1.028-.239.56-.426 1.003-.426 1.758 0 .578.468 1.256.917 1.614a.238.238 0 01-.116.446h-.005a.258.258 0 01-.077-.013C2.803 11.134 1.8 9.86 1.8 8.174c0-1.433.656-2.588 1.35-3.812.626-1.102 1.336-2.35 1.684-4.005a.237.237 0 01.394-.125C8.527 3.278 10.2 5.339 10.2 8.147c0 1.847-1.306 3.43-3.038 3.683l-.035.001z" fill="#000"/>
</symbol><symbol id="gears" viewBox="0 0 26 26">
    <mask id="a" maskUnits="userSpaceOnUse" x="0" y="0" width="26" height="26">
        <path d="M0 0h26v26H0z"/>
        <path fill-rule="evenodd" clip-rule="evenodd" d="M13 7.462a5.538 5.538 0 100 11.076 5.538 5.538 0 000-11.076zM9.306 13a3.692 3.692 0 117.385 0 3.692 3.692 0 01-7.385 0z"/>
        <path fill-rule="evenodd" clip-rule="evenodd" d="M12.17 1c-1.05 0-2.039.705-2.315 1.783l-.176.63a.733.733 0 01-1.066.442l-.588-.332h-.002a2.404 2.404 0 00-2.874.382L3.914 5.116l-.006.006a2.409 2.409 0 00-.382 2.886l.329.582a.733.733 0 01-.442 1.066l-.648.18-.007.003C1.766 10.133 1 11.055 1 12.148v1.704c0 1.083.713 2.042 1.783 2.316l.63.176a.733.733 0 01.442 1.066l-.332.588V18a2.404 2.404 0 00.385 2.878l1.214 1.214a2.409 2.409 0 002.885.382l.583-.329a.733.733 0 011.066.442l.18.648.003.007c.293.992 1.215 1.758 2.309 1.758h1.704c1.05 0 2.04-.705 2.316-1.783l.175-.63a.733.733 0 011.066-.442l.588.332h.002a2.403 2.403 0 002.878-.385l1.214-1.214c.767-.767.91-1.944.386-2.878l-.332-.59a.733.733 0 01.441-1.066l.648-.18.007-.003c.992-.294 1.758-1.216 1.758-2.309v-1.69c.03-1.098-.716-2.032-1.743-2.326l-.646-.18a.733.733 0 01-.442-1.066l.331-.588L22.5 8a2.404 2.404 0 00-.386-2.878L20.9 3.908a2.408 2.408 0 00-2.885-.382l-.582.329a.733.733 0 01-1.067-.442l-.18-.648-.002-.007C15.89 1.766 14.968 1 13.874 1h-1.703zm-.528 2.244a.549.549 0 01.529-.398h1.704c.212 0 .456.165.537.43l.176.632a2.58 2.58 0 003.751 1.555l.594-.335.006-.003a.563.563 0 01.656.089l1.214 1.214a.558.558 0 01.081.669v.001l-.33.586a2.58 2.58 0 001.554 3.75l.635.178h.002c.273.079.41.303.403.503l-.001.017v1.72c0 .212-.165.456-.43.537l-.632.176a2.58 2.58 0 00-1.555 3.751l.33.587a.558.558 0 01-.08.67l-1.214 1.213a.56.56 0 01-.67.081l-.586-.33a2.579 2.579 0 00-3.751 1.555l-.182.652-.003.012a.549.549 0 01-.528.398h-1.704c-.213 0-.456-.165-.538-.43l-.176-.633a2.579 2.579 0 00-3.75-1.554l-.594.335-.006.003a.563.563 0 01-.657-.089l-1.213-1.214a.558.558 0 01-.082-.67l.33-.586a2.58 2.58 0 00-1.554-3.75l-.652-.182-.012-.003a.529.529 0 01-.398-.529v-1.704c0-.212.165-.456.43-.537l.632-.176a2.58 2.58 0 001.555-3.751l-.335-.594-.003-.006a.563.563 0 01.086-.654l1.234-1.21.006-.006a.558.558 0 01.67-.082l.586.331a2.58 2.58 0 003.75-1.555l.182-.652.003-.012z"/>
    </mask>
    <path clip-rule="evenodd" d="M13 7.462a5.538 5.538 0 100 11.076 5.538 5.538 0 000-11.076zM9.306 13a3.692 3.692 0 117.385 0 3.692 3.692 0 01-7.385 0z"/>
    <path clip-rule="evenodd" d="M12.17 1c-1.05 0-2.039.705-2.315 1.783l-.176.63a.733.733 0 01-1.066.442l-.588-.332h-.002a2.404 2.404 0 00-2.874.382L3.914 5.116l-.006.006a2.409 2.409 0 00-.382 2.886l.329.582a.733.733 0 01-.442 1.066l-.648.18-.007.003C1.766 10.133 1 11.055 1 12.148v1.704c0 1.083.713 2.042 1.783 2.316l.63.176a.733.733 0 01.442 1.066l-.332.588V18a2.404 2.404 0 00.385 2.878l1.214 1.214a2.409 2.409 0 002.885.382l.583-.329a.733.733 0 011.066.442l.18.648.003.007c.293.992 1.215 1.758 2.309 1.758h1.704c1.05 0 2.04-.705 2.316-1.783l.175-.63a.733.733 0 011.066-.442l.588.332h.002a2.403 2.403 0 002.878-.385l1.214-1.214c.767-.767.91-1.944.386-2.878l-.332-.59a.733.733 0 01.441-1.066l.648-.18.007-.003c.992-.294 1.758-1.216 1.758-2.309v-1.69c.03-1.098-.716-2.032-1.743-2.326l-.646-.18a.733.733 0 01-.442-1.066l.331-.588L22.5 8a2.404 2.404 0 00-.386-2.878L20.9 3.908a2.408 2.408 0 00-2.885-.382l-.582.329a.733.733 0 01-1.067-.442l-.18-.648-.002-.007C15.89 1.766 14.968 1 13.874 1h-1.703zm-.528 2.244a.549.549 0 01.529-.398h1.704c.212 0 .456.165.537.43l.176.632a2.58 2.58 0 003.751 1.555l.594-.335.006-.003a.563.563 0 01.656.089l1.214 1.214a.558.558 0 01.081.669v.001l-.33.586a2.58 2.58 0 001.554 3.75l.635.178h.002c.273.079.41.303.403.503l-.001.017v1.72c0 .212-.165.456-.43.537l-.632.176a2.58 2.58 0 00-1.555 3.751l.33.587a.558.558 0 01-.08.67l-1.214 1.213a.56.56 0 01-.67.081l-.586-.33a2.579 2.579 0 00-3.751 1.555l-.182.652-.003.012a.549.549 0 01-.528.398h-1.704c-.213 0-.456-.165-.538-.43l-.176-.633a2.579 2.579 0 00-3.75-1.554l-.594.335-.006.003a.563.563 0 01-.657-.089l-1.213-1.214a.558.558 0 01-.082-.67l.33-.586a2.58 2.58 0 00-1.554-3.75l-.652-.182-.012-.003a.529.529 0 01-.398-.529v-1.704c0-.212.165-.456.43-.537l.632-.176a2.58 2.58 0 001.555-3.751l-.335-.594-.003-.006a.563.563 0 01.086-.654l1.234-1.21.006-.006a.558.558 0 01.67-.082l.586.331a2.58 2.58 0 003.75-1.555l.182-.652.003-.012z"/>
    <path clip-rule="evenodd" d="M13 7.462a5.538 5.538 0 100 11.076 5.538 5.538 0 000-11.076zM9.306 13a3.692 3.692 0 117.385 0 3.692 3.692 0 01-7.385 0z" stroke="#24272E" stroke-width=".4" mask="url(#a)"/>
    <path clip-rule="evenodd" d="M12.17 1c-1.05 0-2.039.705-2.315 1.783l-.176.63a.733.733 0 01-1.066.442l-.588-.332h-.002a2.404 2.404 0 00-2.874.382L3.914 5.116l-.006.006a2.409 2.409 0 00-.382 2.886l.329.582a.733.733 0 01-.442 1.066l-.648.18-.007.003C1.766 10.133 1 11.055 1 12.148v1.704c0 1.083.713 2.042 1.783 2.316l.63.176a.733.733 0 01.442 1.066l-.332.588V18a2.404 2.404 0 00.385 2.878l1.214 1.214a2.409 2.409 0 002.885.382l.583-.329a.733.733 0 011.066.442l.18.648.003.007c.293.992 1.215 1.758 2.309 1.758h1.704c1.05 0 2.04-.705 2.316-1.783l.175-.63a.733.733 0 011.066-.442l.588.332h.002a2.403 2.403 0 002.878-.385l1.214-1.214c.767-.767.91-1.944.386-2.878l-.332-.59a.733.733 0 01.441-1.066l.648-.18.007-.003c.992-.294 1.758-1.216 1.758-2.309v-1.69c.03-1.098-.716-2.032-1.743-2.326l-.646-.18a.733.733 0 01-.442-1.066l.331-.588L22.5 8a2.404 2.404 0 00-.386-2.878L20.9 3.908a2.408 2.408 0 00-2.885-.382l-.582.329a.733.733 0 01-1.067-.442l-.18-.648-.002-.007C15.89 1.766 14.968 1 13.874 1h-1.703zm-.528 2.244a.549.549 0 01.529-.398h1.704c.212 0 .456.165.537.43l.176.632a2.58 2.58 0 003.751 1.555l.594-.335.006-.003a.563.563 0 01.656.089l1.214 1.214a.558.558 0 01.081.669v.001l-.33.586a2.58 2.58 0 001.554 3.75l.635.178h.002c.273.079.41.303.403.503l-.001.017v1.72c0 .212-.165.456-.43.537l-.632.176a2.58 2.58 0 00-1.555 3.751l.33.587a.558.558 0 01-.08.67l-1.214 1.213a.56.56 0 01-.67.081l-.586-.33a2.579 2.579 0 00-3.751 1.555l-.182.652-.003.012a.549.549 0 01-.528.398h-1.704c-.213 0-.456-.165-.538-.43l-.176-.633a2.579 2.579 0 00-3.75-1.554l-.594.335-.006.003a.563.563 0 01-.657-.089l-1.213-1.214a.558.558 0 01-.082-.67h0l.33-.586a2.58 2.58 0 00-1.554-3.75l-.652-.182-.012-.003a.529.529 0 01-.398-.529v-1.704c0-.212.165-.456.43-.537l.632-.176a2.58 2.58 0 001.555-3.751l-.335-.594-.003-.006a.563.563 0 01.086-.654l1.234-1.21.006-.006a.558.558 0 01.67-.082h0l.586.331a2.58 2.58 0 003.75-1.555l.182-.652.003-.012z" stroke="#24272E" stroke-width=".4" mask="url(#a)"/>
</symbol><symbol id="glass" viewBox="0 0 18 18">
    <path d="M18 1.45C18 .65 17.35 0 16.55 0H1.45C.65 0 0 .65 0 1.45c0 .35.13.7.37.96L8 11v5H4c-.55 0-1 .45-1 1s.45 1 1 1h10c.55 0 1-.45 1-1s-.45-1-1-1h-4v-5l7.63-8.59c.24-.26.37-.61.37-.96zM4.43 4L2.66 2h12.69l-1.78 2H4.43z"/>
</symbol><symbol id="grid" viewBox="0 0 20 20">
    <path d="M4.556 3C3.698 3 3 3.698 3 4.556v3.11c0 .859.698 1.556 1.556 1.556h3.11c.859 0 1.556-.697 1.556-1.555V4.556C9.222 3.698 8.525 3 7.667 3H4.556zm7.777 0c-.858 0-1.555.698-1.555 1.556v3.11c0 .859.697 1.556 1.555 1.556h3.111c.858 0 1.556-.697 1.556-1.555V4.556C17 3.698 16.302 3 15.444 3h-3.11zm-7.777 7.778c-.858 0-1.556.697-1.556 1.555v3.111C3 16.302 3.698 17 4.556 17h3.11c.859 0 1.556-.698 1.556-1.556v-3.11c0-.859-.697-1.556-1.555-1.556H4.556zm7.777 0c-.858 0-1.555.697-1.555 1.555v3.111c0 .858.697 1.556 1.555 1.556h3.111c.858 0 1.556-.698 1.556-1.556v-3.11c0-.859-.698-1.556-1.556-1.556h-3.11z"/>
</symbol><symbol id="keyboard" viewBox="0 0 18 25">
    <path d="M.051 1.112C0 1.302 0 1.535 0 2s0 .697.051.888a1.5 1.5 0 001.06 1.06C1.304 4 1.536 4 2 4s.697 0 .888-.051a1.5 1.5 0 001.06-1.06C4 2.696 4 2.464 4 2s0-.697-.051-.888a1.5 1.5 0 00-1.06-1.06C2.696 0 2.464 0 2 0s-.697 0-.888.051a1.5 1.5 0 00-1.06 1.06zM.051 8.112C0 8.302 0 8.535 0 9s0 .697.051.888a1.5 1.5 0 001.06 1.06C1.304 11 1.536 11 2 11s.697 0 .888-.051a1.5 1.5 0 001.06-1.06C4 9.696 4 9.464 4 9s0-.697-.051-.888a1.5 1.5 0 00-1.06-1.06C2.696 7 2.464 7 2 7s-.697 0-.888.051a1.5 1.5 0 00-1.06 1.06zM0 16c0-.465 0-.697.051-.888a1.5 1.5 0 011.06-1.06C1.304 14 1.536 14 2 14s.697 0 .888.051a1.5 1.5 0 011.06 1.06C4 15.303 4 15.536 4 16s0 .698-.051.888a1.5 1.5 0 01-1.06 1.06C2.696 18 2.464 18 2 18s-.697 0-.888-.051a1.5 1.5 0 01-1.06-1.06C0 16.697 0 16.464 0 16zM7.051 1.112C7 1.302 7 1.535 7 2s0 .697.051.888a1.5 1.5 0 001.06 1.06C8.304 4 8.536 4 9 4s.697 0 .888-.051a1.5 1.5 0 001.06-1.06C11 2.696 11 2.464 11 2s0-.697-.051-.888a1.5 1.5 0 00-1.06-1.06C9.696 0 9.464 0 9 0s-.697 0-.888.051a1.5 1.5 0 00-1.06 1.06zM7 9c0-.465 0-.697.051-.888a1.5 1.5 0 011.06-1.06C8.304 7 8.536 7 9 7s.697 0 .888.051a1.5 1.5 0 011.06 1.06C11 8.304 11 8.536 11 9s0 .697-.051.888a1.5 1.5 0 01-1.06 1.06C9.696 11 9.464 11 9 11s-.697 0-.888-.051a1.5 1.5 0 01-1.06-1.06C7 9.696 7 9.464 7 9zM7.051 15.112C7 15.302 7 15.535 7 16s0 .698.051.888a1.5 1.5 0 001.06 1.06C8.304 18 8.536 18 9 18s.697 0 .888-.051a1.5 1.5 0 001.06-1.06C11 16.697 11 16.464 11 16s0-.697-.051-.888a1.5 1.5 0 00-1.06-1.06C9.696 14 9.464 14 9 14s-.697 0-.888.051a1.5 1.5 0 00-1.06 1.06zM7 23c0-.465 0-.698.051-.888a1.5 1.5 0 011.06-1.06C8.304 21 8.536 21 9 21s.697 0 .888.051a1.5 1.5 0 011.06 1.06c.052.191.052.424.052.889s0 .698-.051.888a1.5 1.5 0 01-1.06 1.06C9.696 25 9.464 25 9 25s-.697 0-.888-.051a1.5 1.5 0 01-1.06-1.06C7 23.697 7 23.464 7 23zM14.051 1.112C14 1.302 14 1.535 14 2s0 .697.051.888a1.5 1.5 0 001.06 1.06C15.303 4 15.536 4 16 4s.698 0 .888-.051a1.5 1.5 0 001.06-1.06C18 2.696 18 2.464 18 2s0-.697-.051-.888a1.5 1.5 0 00-1.06-1.06C16.697 0 16.464 0 16 0s-.697 0-.888.051a1.5 1.5 0 00-1.06 1.06zM14 9c0-.465 0-.697.051-.888a1.5 1.5 0 011.06-1.06C15.303 7 15.536 7 16 7s.698 0 .888.051a1.5 1.5 0 011.06 1.06C18 8.304 18 8.536 18 9s0 .697-.051.888a1.5 1.5 0 01-1.06 1.06C16.697 11 16.464 11 16 11s-.697 0-.888-.051a1.5 1.5 0 01-1.06-1.06C14 9.696 14 9.464 14 9zM14.051 15.112C14 15.302 14 15.535 14 16s0 .698.051.888a1.5 1.5 0 001.06 1.06c.191.052.424.052.889.052s.698 0 .888-.051a1.5 1.5 0 001.06-1.06C18 16.697 18 16.464 18 16s0-.697-.051-.888a1.5 1.5 0 00-1.06-1.06C16.697 14 16.464 14 16 14s-.697 0-.888.051a1.5 1.5 0 00-1.06 1.06z"/>
</symbol><symbol id="leaf" viewBox="0 0 12 12">
    <path d="M9.63.579a.247.247 0 00-.158.104c-.488.69-1.427.909-2.508 1.165-1.479.35-3.318.786-4.547 2.687-.88 1.355-.608 2.483-.224 3.188.517.953 1.536 1.663 2.33 1.874-1.162.987-2.354 1.557-3.323 1.285a.239.239 0 00-.291.171.235.235 0 00.164.291c.205.057.413.083.627.083 1.031 0 2.16-.628 3.226-1.56-.026-.073-.042-.143-.06-.21a1.948 1.948 0 01-.336-.06C6.21 8.17 7.816 5.877 8.56 4.005a.235.235 0 01.307-.134.235.235 0 01.134.306c-.689 1.728-2.296 4.132-4.076 5.69.234.67.837 1.462 2.374 1.462.763 0 1.964-.465 2.837-1.776.788-1.186 1.811-3.905-.247-8.825a.243.243 0 00-.26-.15z" fill="#000"/>
</symbol><symbol id="lock" viewBox="0 0 48 48">
    <path d="M27 16v2h-6v-2a3 3 0 116 0z"/>
    <path clip-rule="evenodd" d="M22.308 22c-1.64 0-2.648.003-3.405.06a5.32 5.32 0 00-.704.089 1.271 1.271 0 00-.126.033l-.031.011c-.405.189-.703.49-.873.828-.014.04-.069.226-.109.718-.057.713-.06 1.67-.06 3.261 0 1.591.003 2.548.06 3.261.04.492.095.677.11.718a1.831 1.831 0 00.903.84c.022.007.062.018.126.032.134.03.351.063.704.09.757.056 1.765.059 3.405.059h3.384c1.64 0 2.648-.003 3.405-.06.353-.026.57-.06.704-.089a1.271 1.271 0 00.157-.044c.405-.189.703-.49.873-.828.014-.04.069-.226.109-.718.057-.713.06-1.67.06-3.261 0-1.591-.003-2.548-.06-3.261-.04-.492-.095-.677-.11-.718a1.831 1.831 0 00-.872-.828l-.031-.011a1.271 1.271 0 00-.126-.033 5.32 5.32 0 00-.704-.09c-.757-.056-1.765-.059-3.405-.059h-3.384zM22 26a2 2 0 113 1.732V29.5c0 .508-.378.505-.868.5a14.261 14.261 0 00-.264 0c-.49.005-.868.008-.868-.5v-1.768A2 2 0 0122 26z"/>
    <path clip-rule="evenodd" d="M46.701 11.825s-1.543-7.384-8.214-9.979C35.351.65 29.626.05 24 0 18.375.05 12.65.649 9.514 1.846 2.843 4.441 1.3 11.826 1.3 11.826.304 16.015-.045 20.257.005 24c-.05 3.742.25 8.033 1.295 12.175 0 0 1.543 7.384 8.214 9.979C12.65 47.35 18.374 47.95 24 48c5.626-.05 11.35-.599 14.487-1.846 6.67-2.595 8.214-9.98 8.214-9.98.996-4.19 1.344-8.432 1.294-12.174.05-3.742-.298-7.983-1.294-12.175zM17 18.328V16a7 7 0 1114 0v2.328c.23.065.443.144.647.24a5.828 5.828 0 012.766 2.674C35 22.42 35 23.947 35 27s0 4.58-.587 5.758a5.828 5.828 0 01-2.766 2.675C30.429 36 28.85 36 25.692 36h-3.384c-3.158 0-4.737 0-5.955-.567a5.829 5.829 0 01-2.766-2.675C13 31.58 13 30.053 13 27s0-4.58.587-5.758a5.829 5.829 0 012.766-2.675c.204-.095.417-.174.647-.24z"/>
</symbol><symbol id="menu-alt" viewBox="0 0 48 48">
    <path clip-rule="evenodd" d="M38.487 1.846c6.67 2.595 8.214 9.98 8.214 9.98.996 4.19 1.344 8.432 1.294 12.174.05 3.742-.298 7.983-1.294 12.175 0 0-1.543 7.384-8.214 9.979C35.351 47.4 29.626 47.95 24 48c-5.625-.05-11.35-.649-14.486-1.846-6.671-2.595-8.214-9.98-8.214-9.98C.254 32.035-.045 27.743.005 24c-.05-3.742.299-7.983 1.295-12.175 0 0 1.543-7.384 8.214-9.979C12.65.65 18.374.05 24 0c5.626.05 11.35.649 14.487 1.846zM26.526 20.608l-.906-.566c-2.821-1.763-4.552-2.832-5.826-3.388a8.935 8.935 0 00-.068-.03l-.012.074c-.203 1.375-.214 3.41-.214 6.736v1.132c0 3.327.01 5.362.214 6.737l.012.073.068-.03c1.274-.555 3.005-1.625 5.826-3.388l.906-.566c2.549-1.593 4.067-2.554 5.005-3.354l.044-.038-.044-.038c-.938-.8-2.456-1.76-5.005-3.354zm1.214-3.958c-5.412-3.382-8.118-5.074-10.18-3.931-2.06 1.142-2.06 4.333-2.06 10.715v1.132c0 6.382 0 9.573 2.06 10.716 2.062 1.142 4.768-.55 10.18-3.932l.906-.566c4.871-3.044 7.307-4.567 7.307-6.784 0-2.217-2.436-3.74-7.307-6.784l-.906-.566z"/>
</symbol><symbol id="menu" viewBox="0 0 48 48">
    <path fill-rule="evenodd" clip-rule="evenodd" d="M38.487 1.846c6.67 2.595 8.214 9.98 8.214 9.98.996 4.19 1.344 8.432 1.294 12.174.05 3.742-.298 7.983-1.294 12.175 0 0-1.543 7.384-8.214 9.979C35.351 47.4 29.626 47.95 24 48c-5.625-.05-11.35-.649-14.486-1.846-6.671-2.595-8.214-9.98-8.214-9.98C.254 32.035-.045 27.743.005 24c-.05-3.742.299-7.983 1.295-12.175 0 0 1.543-7.384 8.214-9.979C12.65.65 18.374.05 24 0c5.626.05 11.35.649 14.487 1.846zM33 13c.465 0 .697 0 .888.051a1.5 1.5 0 011.06 1.06c.052.191.052.424.052.889s0 .697-.051.888a1.5 1.5 0 01-1.06 1.06C33.696 17 33.464 17 33 17H15c-.465 0-.697 0-.888-.051a1.5 1.5 0 01-1.06-1.06C13 15.697 13 15.464 13 15s0-.697.051-.888a1.5 1.5 0 011.06-1.06C14.303 13 14.536 13 15 13h18zm-4 9c.465 0 .698 0 .888.051a1.5 1.5 0 011.06 1.06c.052.191.052.424.052.889s0 .698-.051.888a1.5 1.5 0 01-1.06 1.06C29.697 26 29.464 26 29 26H15c-.465 0-.697 0-.888-.051a1.5 1.5 0 01-1.06-1.06C13 24.697 13 24.464 13 24s0-.698.051-.888a1.5 1.5 0 011.06-1.06C14.303 22 14.536 22 15 22h14zm-4 9c.465 0 .698 0 .888.051a1.5 1.5 0 011.06 1.06c.052.192.052.424.052.889s0 .697-.051.888a1.5 1.5 0 01-1.06 1.06C25.697 35 25.464 35 25 35H15c-.465 0-.697 0-.888-.051a1.5 1.5 0 01-1.06-1.06C13 33.696 13 33.464 13 33s0-.697.051-.888a1.5 1.5 0 011.06-1.06C14.303 31 14.536 31 15 31h10z"/>
</symbol><symbol id="moon" viewBox="0 0 20 20">
    <path d="M10.97.73c.16-.34-.12-.72-.5-.7C4.47.33 0 5.86 1.19 11.99c.78 4.03 4.09 7.22 8.14 7.87 4.07.66 7.77-1.14 9.87-4.15.21-.31.04-.75-.33-.79C12.13 14.16 8 6.96 10.97.73z"/>
</symbol><symbol id="note" viewBox="0 0 16 16">
    <path fill-rule="evenodd" clip-rule="evenodd" d="M14.5.5a1.5 1.5 0 010 3h-13a1.5 1.5 0 110-3h13zm-4 6a1.5 1.5 0 010 3h-9a1.5 1.5 0 110-3h9zM14 14a1.5 1.5 0 00-1.5-1.5h-11a1.5 1.5 0 000 3h11A1.5 1.5 0 0014 14z" fill="#24272E"/>
</symbol><symbol id="numpad" viewBox="0 0 18 18">
    <path clip-rule="evenodd" d="M1.112 3.949C1.302 4 1.535 4 2 4s.697 0 .888-.051a1.5 1.5 0 001.06-1.06C4 2.696 4 2.464 4 2s0-.697-.051-.888a1.5 1.5 0 00-1.06-1.06C2.696 0 2.464 0 2 0s-.697 0-.888.051a1.5 1.5 0 00-1.06 1.06C0 1.304 0 1.536 0 2s0 .697.051.888a1.5 1.5 0 001.06 1.06zM2 11c-.465 0-.697 0-.888-.051a1.5 1.5 0 01-1.06-1.06C0 9.696 0 9.464 0 9s0-.697.051-.888a1.5 1.5 0 011.06-1.06C1.304 7 1.536 7 2 7s.697 0 .888.051a1.5 1.5 0 011.06 1.06C4 8.304 4 8.536 4 9s0 .697-.051.888a1.5 1.5 0 01-1.06 1.06C2.696 11 2.464 11 2 11zm0 7c-.465 0-.697 0-.888-.051a1.5 1.5 0 01-1.06-1.06C0 16.697 0 16.464 0 16s0-.697.051-.888a1.5 1.5 0 011.06-1.06C1.304 14 1.536 14 2 14s.697 0 .888.051a1.5 1.5 0 011.06 1.06C4 15.303 4 15.536 4 16s0 .698-.051.888a1.5 1.5 0 01-1.06 1.06C2.696 18 2.464 18 2 18zm7-7c-.465 0-.697 0-.888-.051a1.5 1.5 0 01-1.06-1.06C7 9.696 7 9.464 7 9s0-.697.051-.888a1.5 1.5 0 011.06-1.06C8.304 7 8.536 7 9 7s.697 0 .888.051a1.5 1.5 0 011.06 1.06C11 8.304 11 8.536 11 9s0 .697-.051.888a1.5 1.5 0 01-1.06 1.06C9.696 11 9.464 11 9 11zm-.888 6.949C8.302 18 8.535 18 9 18s.697 0 .888-.051a1.5 1.5 0 001.06-1.06C11 16.697 11 16.464 11 16s0-.697-.051-.888a1.5 1.5 0 00-1.06-1.06C9.696 14 9.464 14 9 14s-.697 0-.888.051a1.5 1.5 0 00-1.06 1.06C7 15.303 7 15.536 7 16s0 .698.051.888a1.5 1.5 0 001.06 1.06zM9 4c-.465 0-.697 0-.888-.051a1.5 1.5 0 01-1.06-1.06C7 2.696 7 2.464 7 2s0-.697.051-.888a1.5 1.5 0 011.06-1.06C8.304 0 8.536 0 9 0s.697 0 .888.051a1.5 1.5 0 011.06 1.06C11 1.304 11 1.536 11 2s0 .697-.051.888a1.5 1.5 0 01-1.06 1.06C9.696 4 9.464 4 9 4zm6.112 6.949c.19.051.423.051.888.051s.698 0 .888-.051a1.5 1.5 0 001.06-1.06C18 9.696 18 9.464 18 9s0-.697-.051-.888a1.5 1.5 0 00-1.06-1.06C16.697 7 16.464 7 16 7s-.697 0-.888.051a1.5 1.5 0 00-1.06 1.06C14 8.304 14 8.536 14 9s0 .697.051.888a1.5 1.5 0 001.06 1.06zM16 18c-.465 0-.697 0-.888-.051a1.5 1.5 0 01-1.06-1.06C14 16.697 14 16.464 14 16s0-.697.051-.888a1.5 1.5 0 011.06-1.06C15.303 14 15.536 14 16 14s.698 0 .888.051a1.5 1.5 0 011.06 1.06c.052.191.052.424.052.889s0 .698-.051.888a1.5 1.5 0 01-1.06 1.06C16.697 18 16.464 18 16 18zm-.888-14.051C15.302 4 15.535 4 16 4s.698 0 .888-.051a1.5 1.5 0 001.06-1.06C18 2.696 18 2.464 18 2s0-.697-.051-.888a1.5 1.5 0 00-1.06-1.06C16.697 0 16.464 0 16 0s-.697 0-.888.051a1.5 1.5 0 00-1.06 1.06C14 1.304 14 1.536 14 2s0 .697.051.888a1.5 1.5 0 001.06 1.06z"/>
</symbol><symbol id="open-table" viewBox="0 0 48 48">
    <path fill-rule="evenodd" clip-rule="evenodd" d="M38.487 1.846c6.67 2.595 8.214 9.98 8.214 9.98.996 4.19 1.344 8.432 1.294 12.174.05 3.742-.298 7.983-1.294 12.175 0 0-1.543 7.384-8.214 9.979C35.351 47.4 29.626 47.95 24 48c-5.625-.05-11.35-.649-14.486-1.846-6.671-2.595-8.214-9.98-8.214-9.98C.254 32.035-.045 27.743.005 24c-.05-3.742.299-7.983 1.295-12.175 0 0 1.543-7.384 8.214-9.979C12.65.65 18.374.05 24 0c5.626.05 11.35.649 14.487 1.846zM22 14c0-.465 0-.697.051-.888a1.5 1.5 0 011.06-1.06C23.303 12 23.536 12 24 12s.698 0 .888.051a1.5 1.5 0 011.06 1.06c.052.191.052.424.052.889v8h8c.465 0 .697 0 .888.051a1.5 1.5 0 011.06 1.06c.052.191.052.424.052.889s0 .698-.051.888a1.5 1.5 0 01-1.06 1.06C34.696 26 34.464 26 34 26h-8v8c0 .465 0 .697-.051.888a1.5 1.5 0 01-1.06 1.06C24.697 36 24.464 36 24 36s-.698 0-.888-.051a1.5 1.5 0 01-1.06-1.06C22 34.696 22 34.464 22 34v-8h-8c-.465 0-.697 0-.888-.051a1.5 1.5 0 01-1.06-1.06C12 24.697 12 24.464 12 24s0-.698.051-.888a1.5 1.5 0 011.06-1.06C13.303 22 13.536 22 14 22h8v-8z"/>
</symbol><symbol id="order" viewBox="0 0 20 20">
    <path d="M4.368 3c-.209 0-.41.082-.558.228a.772.772 0 00-.231.55v7a.768.768 0 00.227.557.79.79 0 00.562.232.801.801 0 00.563-.232.776.776 0 00.227-.557V4.556H15.42v10.11c0 .44-.343.778-.79.778a.784.784 0 01-.789-.777v-.778a.784.784 0 00-.79-.778H2.79A.784.784 0 002 13.89v.778C2 15.955 3.06 17 4.368 17h10.264C15.93 17 17 15.946 17 14.667V3.777a.772.772 0 00-.231-.55A.795.795 0 0016.21 3H4.367zm2.764 3.889a.392.392 0 00-.395.389v.778c0 .214.177.388.395.388h.79a.392.392 0 00.394-.388v-.778a.392.392 0 00-.395-.39h-.79zm3.552 0a.784.784 0 00-.79.778c0 .429.354.777.79.777h2.369c.435 0 .79-.348.79-.777a.784.784 0 00-.79-.778h-2.369zM7.132 10a.392.392 0 00-.395.389v.778c0 .214.177.389.395.389h.79a.392.392 0 00.394-.39v-.777A.392.392 0 007.92 10h-.79zm3.552 0a.784.784 0 00-.79.778c0 .43.354.778.79.778h2.369c.435 0 .79-.349.79-.778a.784.784 0 00-.79-.778h-2.369z" fill="#24272E"/>
</symbol><symbol id="person-edit" viewBox="0 0 20 20">
    <path d="M9.714 2a3.432 3.432 0 00-3.428 3.429 3.432 3.432 0 003.428 3.428 3.432 3.432 0 003.429-3.428A3.432 3.432 0 009.714 2zm0 9.429C7.022 11.429 2 12.753 2 15.286v1.285c0 .474.384.858.857.858h7.28c.372 0 .73-.15.994-.412l3.658-3.658a.576.576 0 00-.191-.94c-1.595-.654-3.531-.99-4.884-.99zm8.75.857c-.11 0-.22.042-.304.125l-.857.857 1.714 1.715.858-.857a.429.429 0 000-.606l-1.109-1.109a.428.428 0 00-.303-.125zm-1.767 1.588l-4.411 4.412V20H14l4.412-4.411-1.715-1.715z"/>
</symbol><symbol id="plus" viewBox="0 0 20 20">
    <path d="M16.222 9.122h-5.344V3.778a.878.878 0 00-1.756 0v5.344H3.778a.878.878 0 000 1.756h5.344v5.344a.878.878 0 001.756 0v-5.344h5.344a.878.878 0 000-1.756z"/>
</symbol><symbol id="qr-alt" viewBox="0 0 32 26">
    <path d="M8.41.658C9.398.528 10.596.504 12 .5a1.493 1.493 0 011.384.922A1.5 1.5 0 0112 3.5c-1.393.004-2.4.025-3.19.133-.922.123-1.317.338-1.578.6-.26.26-.475.654-.599 1.578C6.527 6.6 6.505 7.607 6.501 9a1.5 1.5 0 11-3 0v-.057c.004-1.38.028-2.56.159-3.533.169-1.256.54-2.389 1.45-3.3C6.023 1.2 7.157.827 8.41.657zm14.78 2.975a9.936 9.936 0 00-.547-.059l-.526-.035-.455-.016-.374-.01c-.39-.007-.817-.011-1.288-.013a1.5 1.5 0 010-3c1.404.004 2.603.027 3.589.158 1.256.17 2.389.541 3.3 1.451.911.912 1.282 2.045 1.451 3.301l.041.346.026.273.027.354c.05.758.062 1.611.065 2.56V9a1.5 1.5 0 11-3 0l-.005-.748-.008-.555-.011-.408a14.89 14.89 0 00-.108-1.478c-.124-.924-.339-1.319-.6-1.579-.26-.261-.655-.476-1.578-.6zm2.177 16.555c.106-.788.128-1.795.132-3.188H6.5c.002.686.009 1.277.027 1.797.02.535.051.992.105 1.39.124.924.339 1.319.6 1.58.089.09.195.174.332.25.262.147.64.268 1.246.348.788.108 1.796.13 3.189.133a1.5 1.5 0 110 3h-.082c-1.37-.004-2.54-.027-3.507-.158-1.255-.17-2.39-.541-3.3-1.451-.911-.912-1.282-2.045-1.451-3.301-.131-.973-.155-2.152-.159-3.531V17h-2a1.5 1.5 0 010-3h29a1.5 1.5 0 010 3h-2l-.001.057c-.004 1.379-.028 2.558-.159 3.53-.09.679-.24 1.32-.502 1.91a4.531 4.531 0 01-.949 1.392c-.911.91-2.044 1.28-3.3 1.45-.507.07-1.07.108-1.687.13-.561.021-1.168.029-1.82.029H20c-.828.002-1.5-.67-1.5-1.498s.672-1.5 1.5-1.502c1.393-.004 2.4-.025 3.19-.133.922-.123 1.317-.338 1.578-.597a1.54 1.54 0 00.289-.407 2.33 2.33 0 00.128-.316c.072-.223.134-.5.182-.858z"/>
</symbol><symbol id="qr-code" viewBox="0 0 24 24">
    <mask id="a" maskUnits="userSpaceOnUse" x="0" y="0" width="24" height="24" fill="#000">
        <path fill="#fff" d="M0 0h24v24H0z"/>
        <path fill-rule="evenodd" clip-rule="evenodd" d="M1.398 1.398C1 1.796 1 2.436 1 3.716v1.901c0 1.28 0 1.92.398 2.319.398.397 1.038.397 2.318.397h1.901c1.28 0 1.92 0 2.319-.397.397-.398.397-1.038.397-2.319V3.716c0-1.28 0-1.92-.397-2.318C7.538 1 6.898 1 5.617 1H3.716c-1.28 0-1.92 0-2.318.398zm4.22 1.775H3.715l-.542.001-.001.542v1.901l.001.542.542.001h1.901l.542-.001.001-.542V3.716l-.001-.542a62.247 62.247 0 00-.542-.001zm10.446-1.775c-.397.398-.397 1.038-.397 2.318v1.901c0 1.28 0 1.92.397 2.319.398.397 1.038.397 2.319.397h1.901c1.28 0 1.92 0 2.318-.397C23 7.538 23 6.898 23 5.617V3.716c0-1.28 0-1.92-.398-2.318C22.204 1 21.564 1 20.284 1h-1.901c-1.28 0-1.92 0-2.319.398zm4.22 1.775h-1.901l-.542.001-.002.542v1.901c0 .209 0 .386.002.542l.542.001h1.901l.542-.001.001-.542V3.716l-.001-.542a62.245 62.245 0 00-.542-.001zM1 18.383c0-1.28 0-1.92.398-2.319.398-.397 1.038-.397 2.318-.397h1.901c1.28 0 1.92 0 2.319.397.397.398.397 1.038.397 2.319v1.901c0 1.28 0 1.92-.397 2.318C7.538 23 6.898 23 5.617 23H3.716c-1.28 0-1.92 0-2.318-.398C1 22.204 1 21.564 1 20.284v-1.901zm2.716-.543h1.901l.542.001.001.542v1.901l-.001.542-.542.001H3.716l-.542-.001a62.245 62.245 0 01-.001-.542v-1.901l.001-.542.542-.002z"/>
        <path d="M10.778 1.543c0-.256 0-.384.08-.463.079-.08.207-.08.463-.08h1.358c.256 0 .384 0 .464.08.08.08.08.207.08.463v1.358c0 .256 0 .384-.08.464-.08.08-.208.08-.464.08h-1.358c-.256 0-.384 0-.464-.08-.08-.08-.08-.208-.08-.464V1.543zm.079 4.425c-.08.08-.08.208-.08.464V7.79c0 .256 0 .384.08.464.08.08.208.08.464.08h1.358c.256 0 .384 0 .464-.08.08-.08.08-.208.08-.464V6.432c0-.256 0-.384-.08-.464-.08-.08-.208-.08-.464-.08h-1.358c-.256 0-.384 0-.464.08zM1 11.321c0-.256 0-.384.08-.464.08-.08.207-.08.463-.08h1.358c.256 0 .384 0 .464.08.08.08.08.208.08.464v1.358c0 .256 0 .384-.08.464-.08.08-.208.08-.464.08H1.543c-.256 0-.384 0-.463-.08-.08-.08-.08-.208-.08-.464v-1.358zm4.968-.464c-.08.08-.08.208-.08.464v1.358c0 .256 0 .384.08.464.08.08.208.08.464.08H7.79c.256 0 .384 0 .464-.08.08-.08.08-.208.08-.464v-1.358c0-.256 0-.384-.08-.464-.08-.08-.208-.08-.464-.08H6.432c-.256 0-.384 0-.464.08zm4.81.464c0-.256 0-.384.08-.464.079-.08.207-.08.463-.08h1.358c.256 0 .384 0 .464.08.08.08.08.208.08.464v1.901H11.32c-.256 0-.384 0-.464-.08-.08-.079-.08-.207-.08-.463v-1.358z"/>
        <path fill-rule="evenodd" clip-rule="evenodd" d="M15.667 13.222h-2.445v2.445h-1.901c-.256 0-.384 0-.464.08-.08.079-.08.207-.08.463v1.358c0 .256 0 .384.08.464.08.08.208.08.464.08h1.901v2.444h-2.444v1.9c0 .257 0 .385.08.465.079.079.207.079.463.079h1.901v-2.444h2.445v1.9c0 .257 0 .385.08.465.079.079.207.079.463.079h1.358c.256 0 .384 0 .464-.08.08-.08.08-.207.08-.463v-1.901h2.444V23h1.9c.257 0 .385 0 .465-.08.079-.08.079-.207.079-.463v-1.358c0-.256 0-.384-.08-.464-.08-.08-.207-.08-.463-.08h-1.901v-2.444h1.9c.257 0 .385 0 .465-.08.079-.079.079-.207.079-.463V16.21c0-.256 0-.384-.08-.464-.08-.08-.207-.08-.463-.08h-1.901v-2.444h1.9c.257 0 .385 0 .465-.08.079-.079.079-.207.079-.463v-1.358c0-.256 0-.384-.08-.464-.08-.08-.207-.08-.463-.08h-1.358c-.256 0-.384 0-.464.08-.08.08-.08.208-.08.464v1.901h-2.444v-1.901c0-.256 0-.384-.08-.464-.079-.08-.207-.08-.463-.08H16.21c-.256 0-.384 0-.464.08-.08.08-.08.208-.08.464v1.901zm0 2.445v-2.445h2.444v2.445h-2.444zm0 2.444v2.445h2.444V18.11h2.445v-2.444H18.11v2.444h-2.444zm0 0h-2.445v-2.444h2.445v2.444z"/>
    </mask>
    <path fill-rule="evenodd" clip-rule="evenodd" d="M1.398 1.398C1 1.796 1 2.436 1 3.716v1.901c0 1.28 0 1.92.398 2.319.398.397 1.038.397 2.318.397h1.901c1.28 0 1.92 0 2.319-.397.397-.398.397-1.038.397-2.319V3.716c0-1.28 0-1.92-.397-2.318C7.538 1 6.898 1 5.617 1H3.716c-1.28 0-1.92 0-2.318.398zm4.22 1.775H3.715l-.542.001-.001.542v1.901l.001.542.542.001h1.901l.542-.001.001-.542V3.716l-.001-.542a62.247 62.247 0 00-.542-.001zm10.446-1.775c-.397.398-.397 1.038-.397 2.318v1.901c0 1.28 0 1.92.397 2.319.398.397 1.038.397 2.319.397h1.901c1.28 0 1.92 0 2.318-.397C23 7.538 23 6.898 23 5.617V3.716c0-1.28 0-1.92-.398-2.318C22.204 1 21.564 1 20.284 1h-1.901c-1.28 0-1.92 0-2.319.398zm4.22 1.775h-1.901l-.542.001-.002.542v1.901c0 .209 0 .386.002.542l.542.001h1.901l.542-.001.001-.542V3.716l-.001-.542a62.245 62.245 0 00-.542-.001zM1 18.383c0-1.28 0-1.92.398-2.319.398-.397 1.038-.397 2.318-.397h1.901c1.28 0 1.92 0 2.319.397.397.398.397 1.038.397 2.319v1.901c0 1.28 0 1.92-.397 2.318C7.538 23 6.898 23 5.617 23H3.716c-1.28 0-1.92 0-2.318-.398C1 22.204 1 21.564 1 20.284v-1.901zm2.716-.543h1.901l.542.001.001.542v1.901l-.001.542-.542.001H3.716l-.542-.001a62.245 62.245 0 01-.001-.542v-1.901l.001-.542.542-.002z" fill="#24272E"/>
    <path d="M10.778 1.543c0-.256 0-.384.08-.463.079-.08.207-.08.463-.08h1.358c.256 0 .384 0 .464.08.08.08.08.207.08.463v1.358c0 .256 0 .384-.08.464-.08.08-.208.08-.464.08h-1.358c-.256 0-.384 0-.464-.08-.08-.08-.08-.208-.08-.464V1.543zm.079 4.425c-.08.08-.08.208-.08.464V7.79c0 .256 0 .384.08.464.08.08.208.08.464.08h1.358c.256 0 .384 0 .464-.08.08-.08.08-.208.08-.464V6.432c0-.256 0-.384-.08-.464-.08-.08-.208-.08-.464-.08h-1.358c-.256 0-.384 0-.464.08zM1 11.321c0-.256 0-.384.08-.464.08-.08.207-.08.463-.08h1.358c.256 0 .384 0 .464.08.08.08.08.208.08.464v1.358c0 .256 0 .384-.08.464-.08.08-.208.08-.464.08H1.543c-.256 0-.384 0-.463-.08-.08-.08-.08-.208-.08-.464v-1.358zm4.968-.464c-.08.08-.08.208-.08.464v1.358c0 .256 0 .384.08.464.08.08.208.08.464.08H7.79c.256 0 .384 0 .464-.08.08-.08.08-.208.08-.464v-1.358c0-.256 0-.384-.08-.464-.08-.08-.208-.08-.464-.08H6.432c-.256 0-.384 0-.464.08zm4.81.464c0-.256 0-.384.08-.464.079-.08.207-.08.463-.08h1.358c.256 0 .384 0 .464.08.08.08.08.208.08.464v1.901H11.32c-.256 0-.384 0-.464-.08-.08-.079-.08-.207-.08-.463v-1.358z" fill="#24272E"/>
    <path fill-rule="evenodd" clip-rule="evenodd" d="M15.667 13.222h-2.445v2.445h-1.901c-.256 0-.384 0-.464.08-.08.079-.08.207-.08.463v1.358c0 .256 0 .384.08.464.08.08.208.08.464.08h1.901v2.444h-2.444v1.9c0 .257 0 .385.08.465.079.079.207.079.463.079h1.901v-2.444h2.445v1.9c0 .257 0 .385.08.465.079.079.207.079.463.079h1.358c.256 0 .384 0 .464-.08.08-.08.08-.207.08-.463v-1.901h2.444V23h1.9c.257 0 .385 0 .465-.08.079-.08.079-.207.079-.463v-1.358c0-.256 0-.384-.08-.464-.08-.08-.207-.08-.463-.08h-1.901v-2.444h1.9c.257 0 .385 0 .465-.08.079-.079.079-.207.079-.463V16.21c0-.256 0-.384-.08-.464-.08-.08-.207-.08-.463-.08h-1.901v-2.444h1.9c.257 0 .385 0 .465-.08.079-.079.079-.207.079-.463v-1.358c0-.256 0-.384-.08-.464-.08-.08-.207-.08-.463-.08h-1.358c-.256 0-.384 0-.464.08-.08.08-.08.208-.08.464v1.901h-2.444v-1.901c0-.256 0-.384-.08-.464-.079-.08-.207-.08-.463-.08H16.21c-.256 0-.384 0-.464.08-.08.08-.08.208-.08.464v1.901zm0 2.445v-2.445h2.444v2.445h-2.444zm0 2.444v2.445h2.444V18.11h2.445v-2.444H18.11v2.444h-2.444zm0 0h-2.445v-2.444h2.445v2.444z" fill="#24272E"/>
    <path d="M3.174 3.174v-.1l-.099.001v.098l.1.001zm0 2.985h-.1l.001.1h.098l.001-.1zm2.985 0v.1h.1v-.1h-.1zm0-2.985h.1v-.099h-.1v.1zm11.682 0v-.1l-.1.001v.098l.1.001zm0 2.985h-.1v.1h.1v-.1zm2.985 0v.1h.099v-.1h-.1zm0-2.985h.1l-.001-.099h-.098l-.001.1zm-4.762-1.776l-.07-.07v-.001l.07.07zm0 6.538l-.07.07.07-.07zm6.538 0l.071.07-.07-.07zm0-6.538l.071-.07v-.001l-.07.07zM6.16 17.84h.1v-.1h-.1v.1zm0 2.985v.1l.1-.001v-.098l-.1-.001zm-2.985 0h-.1l.001.099h.098l.001-.1zm0-2.985v-.1h-.099v.1h.1zm-1.776-1.777l-.07-.07h-.001l.07.07zm6.538 0l.07-.07-.07.07zm0 6.538l.07.071-.07-.07zm-6.538 0l-.07.071h-.001l.07-.07zm9.46-21.522l-.071-.071.07.07zm2.285 0l.07-.071-.07.07zM1.08 10.857l-.071-.07.07.07zm0 2.286l-.071.07.07-.07zm9.698 7.413v-.1h-.1v.1h.1zM13.222 23v.1h.1V23h-.1zm7.334 0h-.1v.1h.1V23zM3.716 3.273h1.901v-.2H3.716v.2zm-.54.001l.54-.001v-.2l-.543.001.002.2zm.097.442l.001-.54-.2-.003-.001.543h.2zm0 1.901V3.716h-.2v1.901h.2zm.001.541a61.948 61.948 0 01-.001-.54h-.2l.001.542.2-.002zm.442-.098l-.54-.001-.003.2.543.001v-.2zm1.901 0H3.716v.2h1.901v-.2zm.541-.001l-.54.001v.2l.542-.001-.002-.2zm-.098-.442l-.001.541.2.002.001-.543h-.2zm0-1.901v1.901h.2V3.716h-.2zm-.001-.54l.001.54h.2l-.001-.543-.2.002zm-.442.097l.541.001.002-.2a62.548 62.548 0 00-.543-.001v.2zM1.1 3.716c0-.643 0-1.115.049-1.477.048-.358.142-.593.32-.77l-.142-.142c-.22.22-.325.505-.376.886C.9 2.59.9 3.079.9 3.716h.2zm0 1.901V3.716H.9v1.901h.2zm.368 2.248c-.177-.177-.27-.412-.32-.77C1.1 6.731 1.1 6.26 1.1 5.616H.9c0 .638 0 1.126.05 1.504.052.38.156.665.377.885l.141-.141zm2.248.368c-.643 0-1.115 0-1.477-.048-.358-.049-.593-.143-.77-.32l-.142.141c.22.22.505.326.886.377.378.05.866.05 1.503.05v-.2zm1.901 0H3.716v.2h1.901v-.2zm2.248-.368c-.177.177-.412.271-.77.32-.363.048-.835.048-1.478.048v.2c.638 0 1.126 0 1.504-.05.38-.051.665-.156.885-.377l-.141-.141zm.368-2.248c0 .643 0 1.115-.048 1.477-.049.359-.143.594-.32.77l.141.142c.22-.22.326-.504.377-.885.05-.378.05-.866.05-1.504h-.2zm0-1.901v1.901h.2V3.716h-.2zm-.368-2.248c.177.178.271.413.32.771.048.362.048.834.048 1.477h.2c0-.637 0-1.125-.05-1.503-.051-.381-.156-.665-.377-.886l-.141.141zM5.617 1.1c.643 0 1.115 0 1.477.049.359.048.594.142.77.32l.142-.142c-.22-.22-.504-.325-.885-.376C6.743.9 6.255.9 5.617.9v.2zm-1.901 0h1.901V.9H3.716v.2zm-2.248.368c.178-.177.413-.27.771-.32.362-.048.834-.048 1.477-.048V.9c-.637 0-1.125 0-1.503.05-.381.052-.665.156-.886.377l.141.141zm16.915 1.805h1.901v-.2h-1.901v.2zm-.541.001l.54-.001v-.2l-.542.001.002.2zm.098.442l.001-.54-.2-.003a63.28 63.28 0 00-.002.543h.2zm0 1.901V3.716h-.2v1.901h.2zm.001.541a62.67 62.67 0 01-.002-.54h-.2c0 .208 0 .385.002.542l.2-.002zm.442-.098l-.541-.001-.002.2.543.001v-.2zm1.901 0h-1.901v.2h1.901v-.2zm.54-.001l-.54.001v.2l.543-.001-.002-.2zm-.097-.442l-.001.541.2.002.001-.543h-.2zm0-1.901v1.901h.2V3.716h-.2zm-.001-.54l.001.54h.2l-.001-.543-.2.002zm-.442.097l.54.001.003-.2a62.548 62.548 0 00-.543-.001v.2zm-4.517.443c0-.643 0-1.115.049-1.477.048-.358.142-.593.32-.77l-.142-.142c-.22.22-.325.505-.377.886-.05.378-.05.866-.05 1.503h.2zm0 1.901V3.716h-.2v1.901h.2zm.368 2.248c-.177-.177-.271-.412-.32-.77-.048-.363-.048-.835-.048-1.478h-.2c0 .638 0 1.126.05 1.504.051.38.156.665.377.885l.141-.141zm2.248.368c-.643 0-1.116 0-1.477-.048-.359-.049-.594-.143-.77-.32l-.142.141c.22.22.504.326.885.377.378.05.866.05 1.504.05v-.2zm1.901 0h-1.901v.2h1.901v-.2zm2.248-.368c-.178.177-.413.271-.771.32-.362.048-.834.048-1.477.048v.2c.637 0 1.125 0 1.503-.05.381-.051.665-.156.886-.377l-.141-.141zm.368-2.248c0 .643 0 1.115-.049 1.477-.048.359-.142.594-.32.77l.142.142c.22-.22.325-.504.376-.885.051-.378.051-.866.051-1.504h-.2zm0-1.901v1.901h.2V3.716h-.2zm-.368-2.248c.177.178.27.413.32.771.048.362.048.834.048 1.477h.2c0-.637 0-1.125-.05-1.503-.052-.381-.157-.665-.377-.886l-.141.141zM20.284 1.1c.643 0 1.115 0 1.477.049.358.048.593.142.77.32l.142-.142c-.22-.22-.505-.325-.886-.376C21.41.9 20.921.9 20.284.9v.2zm-1.901 0h1.901V.9h-1.901v.2zm-2.248.368c.177-.177.412-.27.77-.32.362-.048.835-.048 1.478-.048V.9c-.638 0-1.126 0-1.504.05-.38.052-.665.156-.885.377l.141.141zM5.617 17.74H3.716v.2h1.901v-.2zm.543.002a63.278 63.278 0 00-.543-.002v.2c.209 0 .386 0 .541.002l.002-.2zm.1.642l-.001-.543-.2.002.001.54h.2zm0 1.901v-1.901h-.2v1.901h.2zm-.001.543l.001-.543h-.2l-.001.54.2.003zm-.642.1l.543-.001-.002-.2a62.67 62.67 0 01-.54.001v.2zm-1.901 0h1.901v-.2H3.716v.2zm-.543-.001l.543.001v-.2l-.54-.001-.003.2zm-.1-.642l.001.543.2-.002a61.956 61.956 0 01-.001-.541h-.2zm0-1.901v1.901h.2v-1.901h-.2zm.001-.543l-.001.543h.2l.001-.541-.2-.002zm.642-.1l-.543.001.002.2.541-.002v-.2zm-2.389-1.746c-.22.22-.325.504-.376.885C.9 17.257.9 17.745.9 18.383h.2c0-.643 0-1.116.049-1.477.048-.359.142-.594.32-.77l-.142-.142zm2.389-.427c-.637 0-1.125 0-1.503.05-.381.051-.665.156-.886.377l.141.141c.178-.177.413-.271.771-.32.362-.048.834-.048 1.477-.048v-.2zm1.901 0H3.716v.2h1.901v-.2zm2.39.427c-.221-.22-.505-.325-.886-.377-.378-.05-.866-.05-1.504-.05v.2c.643 0 1.115 0 1.477.049.359.048.594.142.77.32l.142-.142zm.426 2.389c0-.638 0-1.126-.05-1.504-.051-.38-.156-.665-.377-.885l-.141.141c.177.177.271.412.32.77.048.362.048.835.048 1.478h.2zm0 1.901v-1.901h-.2v1.901h.2zm-.427 2.389c.22-.22.326-.505.377-.886.05-.378.05-.866.05-1.503h-.2c0 .643 0 1.115-.048 1.477-.049.358-.143.593-.32.77l.141.142zm-2.389.427c.638 0 1.126 0 1.504-.05.38-.052.665-.157.885-.377l-.141-.141c-.177.177-.412.27-.77.32-.363.048-.835.048-1.478.048v.2zm-1.901 0h1.901v-.2H3.716v.2zm-2.389-.427c.22.22.505.325.886.376.378.051.866.051 1.503.051v-.2c-.643 0-1.115 0-1.477-.049-.358-.048-.593-.142-.77-.32l-.142.142zM.9 20.284c0 .637 0 1.125.05 1.503.052.381.156.665.377.886l.141-.141c-.177-.178-.27-.413-.32-.771-.048-.362-.048-.834-.048-1.477H.9zm0-1.901v1.901h.2v-1.901H.9zm9.887-17.374a.368.368 0 00-.098.223c-.011.082-.011.186-.011.311h.2c0-.13 0-.219.009-.284.008-.063.023-.09.041-.109l-.141-.141zM11.32.9c-.125 0-.23 0-.311.01a.368.368 0 00-.223.099l.141.141c.018-.018.045-.032.108-.04a2.41 2.41 0 01.285-.01V.9zm1.358 0H11.32v.2h1.358V.9zm.534.109A.368.368 0 0012.99.91C12.908.9 12.804.9 12.68.9v.2c.13 0 .219 0 .285.01.063.008.09.022.108.04l.141-.141zm.11.534c0-.125 0-.229-.012-.311a.368.368 0 00-.098-.223l-.141.141c.018.018.033.046.041.109.009.065.01.153.01.284h.2zm0 1.358V1.543h-.2v1.358h.2zm-.11.535a.368.368 0 00.098-.223c.011-.083.011-.187.011-.312h-.2c0 .131 0 .22-.009.285-.008.063-.023.09-.041.108l.141.142zm-.534.108c.125 0 .23 0 .311-.01a.368.368 0 00.223-.098l-.141-.142c-.018.018-.045.033-.108.041a2.41 2.41 0 01-.285.01v.2zm-1.358 0h1.358v-.2H11.32v.2zm-.534-.108a.368.368 0 00.223.098c.082.01.186.01.311.01v-.2c-.13 0-.219 0-.285-.009-.063-.008-.09-.023-.108-.04l-.141.14zm-.11-.535c0 .125 0 .23.012.312a.368.368 0 00.098.223l.141-.142c-.018-.018-.033-.045-.041-.108a2.421 2.421 0 01-.01-.285h-.2zm0-1.358v1.358h.2V1.543h-.2zm.2 4.89c0-.132.001-.22.01-.286.008-.062.023-.09.041-.108l-.141-.141a.368.368 0 00-.098.223c-.011.082-.011.186-.011.311h.2zm0 1.357V6.432h-.2V7.79h.2zm.051.393c-.018-.018-.033-.045-.041-.108a2.421 2.421 0 01-.01-.285h-.2c0 .125 0 .23.012.311a.368.368 0 00.098.223l.141-.14zm.393.05c-.13 0-.219 0-.285-.009-.063-.008-.09-.023-.108-.04l-.141.14a.368.368 0 00.223.098c.082.012.186.011.311.011v-.2zm1.358 0H11.32v.2h1.358v-.2zm.393-.05c-.018.018-.045.033-.108.041a2.41 2.41 0 01-.285.01v.2c.125 0 .23 0 .311-.011a.368.368 0 00.223-.099l-.141-.14zm.05-.393c0 .131 0 .22-.009.285-.008.063-.023.09-.041.108l.141.141a.368.368 0 00.098-.223c.011-.082.011-.186.011-.31h-.2zm0-1.358V7.79h.2V6.432h-.2zm-.05-.393c.018.018.033.046.041.108.009.066.01.154.01.285h.2c0-.125 0-.23-.012-.311a.368.368 0 00-.098-.223l-.141.141zm-.393-.05c.13 0 .219 0 .285.009.063.008.09.023.108.041l.141-.141a.368.368 0 00-.223-.098c-.082-.011-.186-.011-.311-.011v.2zm-1.358 0h1.358v-.2H11.32v.2zm-.393.05c.018-.018.045-.033.108-.041a2.41 2.41 0 01.285-.01v-.2c-.125 0-.23 0-.311.012a.368.368 0 00-.223.098l.141.141zm-9.92 4.748a.368.368 0 00-.097.223c-.01.082-.01.186-.01.31h.2c0-.13 0-.219.01-.285.008-.063.022-.09.04-.108l-.141-.141zm.535-.11c-.125 0-.229 0-.311.012a.368.368 0 00-.223.098l.141.141c.018-.018.046-.033.109-.041a2.31 2.31 0 01.284-.01v-.2zm1.358 0H1.543v.2h1.358v-.2zm.535.11a.368.368 0 00-.223-.098c-.083-.011-.187-.011-.312-.011v.2c.131 0 .22 0 .285.009.063.008.09.023.108.041l.142-.141zm.108.534c0-.125 0-.23-.01-.311a.368.368 0 00-.098-.223l-.142.141c.018.018.033.045.041.108.01.066.01.154.01.285h.2zm0 1.358v-1.358h-.2v1.358h.2zm-.108.534a.368.368 0 00.098-.223c.01-.082.01-.186.01-.311h-.2c0 .13 0 .219-.009.285-.008.063-.023.09-.04.108l.14.141zm-.535.11c.125 0 .23 0 .312-.012a.368.368 0 00.223-.098l-.142-.141c-.018.018-.045.033-.108.041a2.421 2.421 0 01-.285.01v.2zm-1.358 0H2.9v-.2H1.543v.2zm-.534-.11a.368.368 0 00.223.098c.082.011.186.011.311.011v-.2c-.13 0-.219 0-.284-.009-.063-.008-.09-.023-.109-.041l-.141.141zM.9 12.68c0 .125 0 .23.01.311a.368.368 0 00.099.223l.141-.141c-.018-.018-.032-.045-.04-.108a2.41 2.41 0 01-.01-.285H.9zm0-1.358v1.358h.2v-1.358H.9zm5.089 0c0-.13 0-.219.009-.285.008-.063.023-.09.041-.108l-.141-.141a.368.368 0 00-.098.223c-.011.082-.011.186-.011.311h.2zm0 1.358v-1.358h-.2v1.358h.2zm.05.393c-.018-.018-.033-.045-.041-.108a2.41 2.41 0 01-.01-.285h-.2c0 .125 0 .23.012.311a.368.368 0 00.098.223l.141-.141zm.393.05c-.13 0-.219 0-.285-.009-.062-.008-.09-.023-.108-.041l-.141.141a.368.368 0 00.223.098c.082.011.186.011.311.011v-.2zm1.358 0H6.432v.2H7.79v-.2zm.393-.05c-.018.018-.045.033-.108.041a2.421 2.421 0 01-.285.01v.2c.125 0 .23 0 .311-.012a.368.368 0 00.223-.098l-.14-.141zm.05-.393c0 .13 0 .219-.009.285-.008.063-.023.09-.04.108l.14.141a.368.368 0 00.098-.223c.012-.082.011-.186.011-.311h-.2zm0-1.358v1.358h.2v-1.358h-.2zm-.05-.393c.018.018.033.045.041.108.01.066.01.154.01.285h.2c0-.125 0-.23-.011-.311a.368.368 0 00-.099-.223l-.14.141zm-.393-.05c.131 0 .22 0 .285.009.063.008.09.023.108.041l.141-.141a.368.368 0 00-.223-.098c-.082-.011-.186-.011-.31-.011v.2zm-1.358 0H7.79v-.2H6.432v.2zm-.393.05c.018-.018.046-.033.108-.041.066-.009.154-.01.285-.01v-.2c-.125 0-.23 0-.311.012a.368.368 0 00-.223.098l.141.141zm4.748-.141a.368.368 0 00-.098.223c-.011.082-.011.186-.011.311h.2c0-.13 0-.219.009-.285.008-.063.023-.09.041-.108l-.141-.141zm.534-.11c-.125 0-.23 0-.311.012a.368.368 0 00-.223.098l.141.141c.018-.018.045-.033.108-.041a2.42 2.42 0 01.285-.01v-.2zm1.358 0h-1.358v.2h1.358v-.2zm.534.11a.368.368 0 00-.223-.098c-.082-.011-.186-.011-.311-.011v.2c.13 0 .219 0 .285.009.063.008.09.023.108.041l.141-.141zm.11.534c0-.125 0-.23-.012-.311a.368.368 0 00-.098-.223l-.141.141c.018.018.033.045.041.108.009.066.01.154.01.285h.2zm0 1.901v-1.901h-.2v1.901h.2zm-2.002.1h1.901v-.2h-1.901v.2zm-.534-.109a.368.368 0 00.223.098c.082.011.186.011.311.011v-.2c-.13 0-.219 0-.285-.009-.063-.008-.09-.023-.108-.041l-.141.141zm-.11-.534c0 .125 0 .23.012.311a.368.368 0 00.098.223l.141-.141c-.018-.018-.033-.045-.041-.108a2.42 2.42 0 01-.01-.285h-.2zm0-1.358v1.358h.2v-1.358h-.2zm4.99 1.801h-2.445v.2h2.445v-.2zm-2.545.1v2.445h.2v-2.445h-.2zm.1 2.345h-1.901v.2h1.901v-.2zm-1.901 0c-.125 0-.23 0-.311.01a.368.368 0 00-.223.098l.141.142c.018-.018.045-.033.108-.041a2.42 2.42 0 01.285-.01v-.2zm-.534.108a.368.368 0 00-.098.223c-.011.083-.011.187-.011.312h.2c0-.131 0-.22.009-.285.008-.063.023-.09.041-.108l-.141-.142zm-.11.535v1.358h.2V16.21h-.2zm0 1.358c0 .125 0 .23.012.311a.368.368 0 00.098.223l.141-.141c-.018-.018-.033-.045-.041-.108a2.42 2.42 0 01-.01-.285h-.2zm.11.534a.369.369 0 00.223.098c.082.011.186.011.311.011v-.2c-.13 0-.219 0-.285-.009-.063-.008-.09-.023-.108-.041l-.141.141zm.534.11h1.901v-.2h-1.901v.2zm1.801-.1v2.444h.2V18.11h-.2zm.1 2.344h-2.444v.2h2.444v-.2zm-2.544.1v1.9h.2v-1.9h-.2zm0 1.9c0 .126 0 .23.01.312a.368.368 0 00.099.223l.141-.141c-.018-.018-.033-.046-.041-.109a2.422 2.422 0 01-.01-.284h-.2zm.109.535a.369.369 0 00.223.098c.082.011.186.011.311.011v-.2c-.13 0-.219 0-.285-.01-.063-.008-.09-.022-.108-.04l-.141.141zm.534.109h1.901v-.2h-1.901v.2zm2.001-.1v-2.444h-.2V23h.2zm-.1-2.344h2.445v-.2h-2.445v.2zm2.345-.1v1.9h.2v-1.9h-.2zm0 1.9c0 .126 0 .23.01.312a.368.368 0 00.098.223l.142-.141c-.018-.018-.033-.046-.041-.109a2.422 2.422 0 01-.01-.284h-.2zm.108.535a.369.369 0 00.223.098c.083.011.187.011.312.011v-.2c-.131 0-.22 0-.285-.01-.063-.008-.09-.022-.108-.04l-.142.141zm.535.109h1.358v-.2H16.21v.2zm1.358 0c.125 0 .23 0 .311-.01a.369.369 0 00.223-.099l-.141-.141c-.018.018-.045.032-.108.04-.066.01-.154.01-.285.01v.2zm.534-.109a.369.369 0 00.098-.223c.011-.082.011-.186.011-.311h-.2c0 .13 0 .219-.009.284-.008.063-.023.09-.041.109l.141.141zm.11-.534v-1.901h-.2v1.9h.2zm-.1-1.801h2.444v-.2H18.11v.2zm2.344-.1V23h.2v-2.444h-.2zm.1 2.544h1.9v-.2h-1.9v.2zm1.9 0c.126 0 .23 0 .312-.01a.369.369 0 00.223-.099l-.141-.141c-.018.018-.046.032-.109.04-.065.01-.153.01-.284.01v.2zm.535-.109a.369.369 0 00.098-.223c.011-.082.011-.186.011-.311h-.2c0 .13 0 .219-.01.284-.008.063-.022.09-.04.109l.141.141zm.109-.534V21.1h-.2v1.358h.2zm0-1.358c0-.125 0-.23-.01-.312a.369.369 0 00-.099-.223l-.141.142c.018.018.032.045.04.108.01.066.01.154.01.285h.2zm-.109-.535a.368.368 0 00-.223-.098c-.082-.01-.186-.01-.311-.01v.2c.13 0 .219 0 .284.009.063.008.09.023.109.04l.141-.14zm-.534-.108h-1.901v.2h1.9v-.2zm-1.801.1V18.11h-.2v2.445h.2zm-.1-2.345h1.9v-.2h-1.9v.2zm1.9 0c.126 0 .23 0 .312-.01a.369.369 0 00.223-.099l-.141-.141c-.018.018-.046.033-.109.041a2.422 2.422 0 01-.284.01v.2zm.535-.109a.369.369 0 00.098-.223c.011-.082.011-.186.011-.311h-.2c0 .13 0 .219-.01.285-.008.063-.022.09-.04.108l.141.141zm.109-.534V16.21h-.2v1.358h.2zm0-1.358c0-.125 0-.23-.01-.312a.369.369 0 00-.099-.223l-.141.142c.018.018.032.045.04.108.01.066.01.154.01.285h.2zm-.109-.535a.368.368 0 00-.223-.098c-.082-.01-.186-.01-.311-.01v.2c.13 0 .219 0 .284.009.063.008.09.023.109.04l.141-.14zm-.534-.108h-1.901v.2h1.9v-.2zm-1.801.1v-2.445h-.2v2.445h.2zm-.1-2.345h1.9v-.2h-1.9v.2zm1.9 0c.126 0 .23 0 .312-.01a.368.368 0 00.223-.099l-.141-.141c-.018.018-.046.033-.109.041a2.422 2.422 0 01-.284.01v.2zm.535-.109a.369.369 0 00.098-.223c.011-.082.011-.186.011-.311h-.2c0 .13 0 .219-.01.285-.008.063-.022.09-.04.108l.141.141zm.109-.534v-1.358h-.2v1.358h.2zm0-1.358c0-.125 0-.23-.01-.311a.369.369 0 00-.099-.223l-.141.141c.018.018.032.045.04.108.01.066.01.154.01.285h.2zm-.109-.534a.368.368 0 00-.223-.098c-.082-.011-.186-.011-.311-.011v.2c.13 0 .219 0 .284.009.063.008.09.023.109.041l.141-.141zm-.534-.11h-1.358v.2h1.358v-.2zm-1.358 0c-.125 0-.23 0-.312.012a.368.368 0 00-.223.098l.142.141c.018-.018.045-.033.108-.041a2.42 2.42 0 01.285-.01v-.2zm-.535.11a.368.368 0 00-.098.223c-.01.082-.01.186-.01.311h.2c0-.13 0-.219.009-.285.008-.063.023-.09.04-.108l-.14-.141zm-.108.534v1.901h.2v-1.901h-.2zm.1 1.801H18.11v.2h2.445v-.2zm-2.345.1v-1.901h-.2v1.901h.2zm0-1.901c0-.125 0-.23-.01-.311a.369.369 0 00-.099-.223l-.141.141c.018.018.033.045.041.108.009.066.01.154.01.285h.2zm-.109-.534a.368.368 0 00-.223-.098c-.082-.011-.186-.011-.311-.011v.2c.13 0 .219 0 .285.009.063.008.09.023.108.041l.141-.141zm-.534-.11H16.21v.2h1.358v-.2zm-1.358 0c-.125 0-.23 0-.312.012a.368.368 0 00-.223.098l.142.141c.018-.018.045-.033.108-.041a2.42 2.42 0 01.285-.01v-.2zm-.535.11a.368.368 0 00-.098.223c-.01.082-.01.186-.01.311h.2c0-.13 0-.219.009-.285.008-.063.023-.09.04-.108l-.14-.141zm-.108.534v1.901h.2v-1.901h-.2zm.2 4.346v-2.445h-.2v2.445h.2zm-.1-2.345h2.444v-.2h-2.444v.2zm2.344-.1v2.445h.2v-2.445h-.2zm.1 2.345h-2.444v.2h2.444v-.2zm-2.344 4.989V18.11h-.2v2.445h.2zm2.344-.1h-2.444v.2h2.444v-.2zm-.1-2.345v2.445h.2V18.11h-.2zm2.545-.1H18.11v.2h2.445v-.2zm-.1-2.344v2.444h.2v-2.444h-.2zm-2.345.1h2.445v-.2H18.11v.2zm.1 2.344v-2.444h-.2v2.444h.2zm-2.544.1h2.444v-.2h-2.444v.2zm0-.2h-2.445v.2h2.445v-.2zm-2.345.1v-2.444h-.2v2.444h.2zm-.1-2.344h2.445v-.2h-2.445v.2zm2.345-.1v2.444h.2v-2.444h-.2z" fill="#24272E" mask="url(#a)"/>
</symbol><symbol id="qr" viewBox="0 0 24 24">
    <path clip-rule="evenodd" d="M.434.434C0 .868 0 1.566 0 2.963v2.074c0 1.397 0 2.095.434 2.53C.868 8 1.566 8 2.963 8h2.074c1.397 0 2.095 0 2.53-.434C8 7.132 8 6.434 8 5.037V2.963C8 1.566 8 .868 7.566.433 7.132 0 6.434 0 5.037 0H2.963C1.566 0 .868 0 .433.434zM5.037 2.37H2.963c-.228 0-.42 0-.591.002-.002.17-.002.363-.002.591v2.074c0 .228 0 .42.002.591.17.002.363.002.591.002h2.074c.228 0 .42 0 .591-.002.002-.17.002-.363.002-.591V2.963c0-.228 0-.42-.002-.591-.17-.002-.363-.002-.591-.002zM16.434.434C16 .868 16 1.566 16 2.963v2.074c0 1.397 0 2.095.434 2.53C16.868 8 17.566 8 18.963 8h2.074c1.397 0 2.095 0 2.53-.434C24 7.132 24 6.434 24 5.037V2.963c0-1.397 0-2.095-.434-2.53C23.132 0 22.434 0 21.037 0h-2.074c-1.397 0-2.095 0-2.53.434zm4.603 1.936h-2.074c-.228 0-.42 0-.591.002-.002.17-.002.363-.002.591v2.074c0 .228 0 .42.002.591.17.002.363.002.591.002h2.074c.228 0 .42 0 .591-.002.002-.17.002-.363.002-.591V2.963c0-.228 0-.42-.002-.591a67.46 67.46 0 00-.591-.002zM0 18.963c0-1.397 0-2.095.434-2.53C.868 16 1.566 16 2.963 16h2.074c1.397 0 2.095 0 2.53.434C8 16.868 8 17.566 8 18.963v2.074c0 1.397 0 2.095-.434 2.53C7.132 24 6.434 24 5.037 24H2.963c-1.397 0-2.095 0-2.53-.434C0 23.132 0 22.434 0 21.037v-2.074zm2.963-.593h2.074c.228 0 .42 0 .591.002.002.17.002.363.002.591v2.074c0 .228 0 .42-.002.591-.17.002-.363.002-.591.002H2.963c-.228 0-.42 0-.591-.002-.002-.17-.002-.363-.002-.591v-2.074c0-.228 0-.42.002-.591.17-.002.363-.002.591-.002z"/>
    <path d="M10.667.593c0-.28 0-.42.086-.506C10.84 0 10.98 0 11.26 0h1.482c.28 0 .419 0 .505.087.087.087.087.226.087.506v1.481c0 .28 0 .42-.087.506-.086.087-.226.087-.505.087h-1.482c-.28 0-.419 0-.506-.087-.086-.087-.086-.227-.086-.506V.593zM10.753 5.42c-.086.087-.086.227-.086.506v1.481c0 .28 0 .42.086.506.087.087.227.087.506.087h1.482c.28 0 .419 0 .505-.087.087-.087.087-.226.087-.506V5.926c0-.28 0-.42-.087-.506-.086-.087-.226-.087-.505-.087h-1.482c-.28 0-.419 0-.506.087zM0 11.26c0-.28 0-.42.087-.507.087-.086.226-.086.506-.086h1.481c.28 0 .42 0 .506.086.087.087.087.227.087.506v1.482c0 .28 0 .419-.087.505-.087.087-.227.087-.506.087H.593c-.28 0-.42 0-.506-.087C0 13.16 0 13.02 0 12.741v-1.482zM5.42 10.753c-.087.087-.087.227-.087.506v1.482c0 .28 0 .419.087.505.087.087.227.087.506.087h1.481c.28 0 .42 0 .506-.087C8 13.16 8 13.02 8 12.741v-1.482c0-.28 0-.419-.087-.506-.087-.086-.226-.086-.506-.086H5.926c-.28 0-.42 0-.506.086zM10.667 11.26c0-.28 0-.42.086-.507.087-.086.227-.086.506-.086h1.482c.28 0 .419 0 .505.086.087.087.087.227.087.506v2.074H11.26c-.28 0-.419 0-.506-.087-.086-.086-.086-.226-.086-.505v-1.482z"/>
    <path clip-rule="evenodd" d="M16 13.333h-2.667V16H11.26c-.28 0-.419 0-.506.087-.086.087-.086.226-.086.506v1.481c0 .28 0 .42.086.506.087.087.227.087.506.087h2.074v2.666h-2.666v2.074c0 .28 0 .42.086.506.087.087.227.087.506.087h2.074v-2.667H16v2.074c0 .28 0 .42.087.506.087.087.226.087.506.087h1.481c.28 0 .42 0 .506-.087.087-.087.087-.226.087-.506v-2.074h2.666V24h2.074c.28 0 .42 0 .506-.087.087-.087.087-.226.087-.506v-1.481c0-.28 0-.42-.087-.506-.087-.087-.226-.087-.506-.087h-2.074v-2.666h2.074c.28 0 .42 0 .506-.087.087-.087.087-.227.087-.506v-1.481c0-.28 0-.42-.087-.506-.087-.087-.226-.087-.506-.087h-2.074v-2.667h2.074c.28 0 .42 0 .506-.087.087-.086.087-.226.087-.505v-1.482c0-.28 0-.419-.087-.506-.087-.086-.226-.086-.506-.086h-1.481c-.28 0-.42 0-.506.086-.087.087-.087.227-.087.506v2.074h-2.666V11.26c0-.28 0-.419-.087-.506-.087-.086-.227-.086-.506-.086h-1.481c-.28 0-.42 0-.506.086-.087.087-.087.227-.087.506v2.074zM16 16v-2.667h2.667V16H16zm0 2.667v2.666h2.667v-2.666h2.666V16h-2.666v2.667H16zm0 0h-2.667V16H16v2.667z"/>
</symbol><symbol id="timer-progress-pending" viewBox="0 0 10 10">
    <path d="M5 0a5 5 0 102.939.955L5 5V0z"/>
</symbol><symbol id="timer-progress-round" viewBox="0 0 24 24">
    <path d="M12 18a1 1 0 100-2 1 1 0 000 2zm-5-5a1 1 0 100-2 1 1 0 000 2zm10 0a1 1 0 100-2 1 1 0 000 2z"/>
    <path d="M12 3c-.55 0-1 .45-1 1v2c0 .55.45 1 1 1s1-.45 1-1v-.92c3.31.48 5.87 3.25 6 6.66.14 3.85-3.03 7.2-6.88 7.26A6.996 6.996 0 015 12c0-1.68.59-3.22 1.58-4.42l4.71 4.72a.996.996 0 101.41-1.41L7.26 5.46c-.38-.38-1-.39-1.4-.02A8.904 8.904 0 003 12c0 5.04 4.14 9.12 9.21 9 4.7-.11 8.63-4.01 8.78-8.71C21.16 7.19 17.07 3 12 3z"/>
</symbol><symbol id="timer-progress" viewBox="0 0 7 10">
    <path d="M5 0a5 5 0 101.84 9.649L5 5V0z"/>
</symbol><symbol id="times-round" viewBox="0 0 24 24">
    <path d="M13.89 8.7L12 10.59 10.11 8.7a.996.996 0 10-1.41 1.41L10.59 12 8.7 13.89a.996.996 0 101.41 1.41L12 13.41l1.89 1.89a.996.996 0 101.41-1.41L13.41 12l1.89-1.89a.996.996 0 000-1.41c-.39-.38-1.03-.38-1.41 0zM12 2C6.47 2 2 6.47 2 12s4.47 10 10 10 10-4.47 10-10S17.53 2 12 2zm0 18c-4.41 0-8-3.59-8-8s3.59-8 8-8 8 3.59 8 8-3.59 8-8 8z"/>
</symbol><symbol id="times" viewBox="0 0 12 12">
    <path d="M6 4.895l.07.071-.07.07-.07-.07.07-.07zm0 0l3.624-3.624.005-.005c.109-.108.198-.197.276-.258A.442.442 0 0110.17.9c.1-.002.184.038.265.1.077.058.163.144.268.248l.005.006-.07.07.07-.07.038.038.006.005c.104.105.19.19.248.268a.418.418 0 01.1.265.442.442 0 01-.108.265c-.06.078-.15.167-.259.276l-.004.005L7.105 6l3.624 3.624.005.005c.108.109.197.198.258.276a.441.441 0 01.108.265.417.417 0 01-.1.265 2.887 2.887 0 01-.248.268l-.006.005-.038.038-.005.006c-.105.104-.19.19-.268.248a.417.417 0 01-.265.1.441.441 0 01-.265-.108 3.227 3.227 0 01-.276-.259l-.005-.004L6 7.105l-3.624 3.624-.005.005a3.225 3.225 0 01-.276.258.442.442 0 01-.265.108.418.418 0 01-.265-.1 2.877 2.877 0 01-.268-.248l-.005-.006-.038-.038.07-.07-.07.07-.006-.005A2.879 2.879 0 011 10.435a.417.417 0 01-.1-.265.442.442 0 01.108-.265c.06-.078.15-.167.259-.276l.004-.005L4.895 6 1.271 2.376l-.004-.005a3.223 3.223 0 01-.259-.276A.442.442 0 01.9 1.83a.417.417 0 01.1-.265c.058-.077.144-.163.248-.268l.006-.005.038-.038.005-.006c.105-.104.19-.19.268-.248A.417.417 0 011.83.9a.448.448 0 01.265.108c.078.06.167.15.276.259l.005.004L6 4.895z"/>
</symbol><symbol id="trash" viewBox="0 0 16 16">
    <path d="M6.874 1.333a.5.5 0 00-.353.147L6 2H3.166a.5.5 0 00-.5.5v.333a.5.5 0 00.5.5h9.667a.5.5 0 00.5-.5V2.5a.5.5 0 00-.5-.5H10l-.52-.52a.5.5 0 00-.353-.147H6.874zm-3.04 3.334a.5.5 0 00-.5.5v8.166c0 .734.6 1.334 1.333 1.334h6.667c.733 0 1.333-.6 1.333-1.334V5.167a.5.5 0 00-.5-.5H3.834z"/>
</symbol><symbol id="triangle-down" viewBox="0 0 18 18">
    <path d="M4.205 8.669C3.09 6.643 2.34 5.272 1.953 4.226c-.382-1.03-.258-1.34-.17-1.49.087-.148.3-.407 1.387-.568C4.273 2.004 5.835 2 8.148 2h1.704c2.313 0 3.874.004 4.978.168 1.086.161 1.3.42 1.387.569.088.148.212.46-.17 1.49-.388 1.045-1.137 2.416-2.252 4.442l-.852 1.55c-1.186 2.155-1.995 3.619-2.714 4.565-.715.94-1.06.99-1.229.99-.168 0-.514-.05-1.229-.99-.719-.946-1.528-2.41-2.714-4.566l-.852-1.55z"/>
</symbol><symbol id="triangle-right" viewBox="0 0 17 20">
    <path d="M8.903 5.081c-2.076-1.311-3.49-2.2-4.575-2.679-1.078-.477-1.405-.354-1.552-.273-.148.082-.425.292-.598 1.459C2.004 4.76 2 6.43 2 8.886v2.228c0 2.456.004 4.125.178 5.298.173 1.167.45 1.377.598 1.459.147.081.474.204 1.552-.273 1.085-.48 2.499-1.368 4.575-2.68l1.764-1.113c1.847-1.167 3.085-1.954 3.883-2.64.78-.671.832-.99.832-1.165 0-.175-.053-.494-.832-1.165-.798-.686-2.036-1.473-3.883-2.64L8.903 5.081z"/>
</symbol><symbol id="vegan" viewBox="0 0 12 12">
    <path d="M8.455 1.2C6.9 1.2 6 2.55 6 2.55S5.1 1.2 3.545 1.2A2.945 2.945 0 00.6 4.145C.6 7 3.94 9.728 5.458 10.92c0 0 .248.181.542.181.294 0 .542-.181.542-.181C8.06 9.728 11.4 6.999 11.4 4.145A2.945 2.945 0 008.455 1.2zM5.687 8.548L3.16 4.408a.334.334 0 01.285-.508h.476c.172 0 .33.095.411.247l1.52 2.835a.169.169 0 00.297 0l1.52-2.835a.467.467 0 01.41-.247h.476c.26 0 .42.285.285.508l-2.527 4.14a.366.366 0 01-.626 0z"/>
</symbol><symbol id="waiter" viewBox="0 0 8 7">
    <path d="M1.772 2.77c-.347-.687-.58-1.15-.697-1.503C.96.92 1.002.812 1.038.756c.036-.058.12-.146.487-.2C1.898.501 2.424.5 3.2.5h1.6c.776 0 1.302.001 1.675.056.367.054.45.142.487.2l.424-.265-.424.265c.036.056.078.165-.037.51-.116.353-.35.817-.697 1.504l-.8 1.58c-.417.824-.704 1.39-.963 1.756-.26.368-.394.394-.465.394-.07 0-.205-.026-.465-.394-.259-.367-.546-.932-.963-1.755l-.8-1.581z"/>
</symbol><symbol id="waiters" viewBox="0 0 48 48">
    <path fill-rule="evenodd" clip-rule="evenodd" d="M38.487 1.846c6.67 2.595 8.214 9.98 8.214 9.98.996 4.19 1.344 8.432 1.294 12.174.05 3.742-.298 7.983-1.294 12.175 0 0-1.543 7.384-8.214 9.979C35.351 47.4 29.626 47.95 24 48c-5.625-.05-11.35-.649-14.486-1.846-6.671-2.595-8.214-9.98-8.214-9.98C.254 32.035-.045 27.743.005 24c-.05-3.742.299-7.983 1.295-12.175 0 0 1.543-7.384 8.214-9.979C12.65.65 18.374.05 24 0c5.626.05 11.35.649 14.487 1.846zM20.372 23.687l-.466-1.003c-1.243-2.678-1.974-4.277-2.316-5.435l-.016-.053.055-.008c1.194-.177 2.952-.188 5.905-.188h.931c2.953 0 4.712.01 5.906.188l.055.008-.016.053c-.342 1.158-1.073 2.757-2.317 5.435l-.465 1.003c-1.625 3.5-2.661 5.708-3.567 7.094a2.45 2.45 0 01-.061.092l-.042-.063-.019-.029c-.906-1.386-1.942-3.594-3.567-7.094zm-2.937-7.166a.02.02 0 000-.005v.004zm-.516.825a.112.112 0 01-.02.01s.005-.004.02-.01zm14.182.01l-.02-.01c.015.006.02.01.02.01zm-.535-.818a.13.13 0 010-.022v.022zm-7.218 15.146a.21.21 0 01.033-.025.134.134 0 01-.033.025zm1.27-.025a.154.154 0 01.034.025.139.139 0 01-.034-.025zm-8.34-7.29c-2.375-5.115-3.562-7.673-2.383-9.521 1.18-1.848 4-1.848 9.64-1.848h.93c5.64 0 8.46 0 9.64 1.848 1.179 1.848-.008 4.406-2.383 9.52l-.466 1.004c-3.135 6.753-4.703 10.13-7.256 10.13s-4.12-3.377-7.256-10.13l-.466-1.003z"/>
</symbol></svg>